<!--
  - /*
  -  * Copyright Amazon.com, Inc. or its affiliates. All Rights Reserved.
  -  * SPDX-License-Identifier: MIT-0
  -  */
  -->

<svg id="svg" version="1.1" xmlns="http://www.w3.org/2000/svg" xmlns:xlink="http://www.w3.org/1999/xlink" width="400" height="65.90649942987457" viewBox="0, 0, 400,65.90649942987457"><g id="svgg"><path id="path0" d="M14.625 1.612 C 14.190 1.652,13.833 1.741,13.833 1.811 C 13.833 1.880,13.158 2.032,12.333 2.149 C 11.508 2.265,10.833 2.418,10.833 2.487 C 10.833 2.557,10.421 2.706,9.917 2.819 C 9.412 2.932,9.000 3.085,9.000 3.160 C 9.000 3.235,8.738 3.345,8.417 3.406 C 8.096 3.466,7.833 3.573,7.833 3.643 C 7.833 3.714,7.572 3.874,7.252 3.999 C 6.535 4.281,6.465 4.579,6.533 7.083 L 6.583 8.917 7.823 8.905 C 8.581 8.897,9.088 8.820,9.126 8.706 C 9.160 8.603,9.596 8.428,10.094 8.316 C 10.592 8.205,11.000 8.055,11.000 7.984 C 11.000 7.912,11.338 7.803,11.750 7.741 C 12.162 7.679,12.500 7.571,12.500 7.501 C 12.500 7.275,14.958 7.000,16.979 7.000 C 18.898 7.000,20.833 7.254,20.833 7.505 C 20.833 7.574,21.010 7.675,21.226 7.729 C 21.739 7.858,23.088 9.155,23.251 9.676 C 23.321 9.900,23.439 10.123,23.513 10.170 C 23.587 10.218,23.726 10.743,23.822 11.337 C 24.149 13.349,24.002 17.229,23.639 16.171 C 23.608 16.082,22.702 15.916,21.625 15.802 C 20.548 15.688,19.667 15.536,19.667 15.464 C 19.667 15.392,18.279 15.333,16.583 15.333 C 14.887 15.333,13.500 15.395,13.500 15.470 C 13.500 15.545,12.922 15.697,12.216 15.806 C 11.510 15.916,10.892 16.065,10.841 16.136 C 10.791 16.208,10.440 16.357,10.061 16.467 C 9.683 16.578,9.280 16.780,9.166 16.917 C 9.052 17.055,8.890 17.167,8.806 17.167 C 8.436 17.167,5.908 19.640,5.749 20.159 C 5.679 20.384,5.520 20.670,5.395 20.796 C 5.269 20.921,5.167 21.131,5.167 21.262 C 5.167 21.393,5.098 21.500,5.014 21.500 C 4.830 21.500,4.500 22.952,4.500 23.758 C 4.500 24.075,4.425 24.333,4.333 24.333 C 4.236 24.333,4.167 24.889,4.167 25.667 C 4.167 26.444,4.236 27.000,4.333 27.000 C 4.425 27.000,4.500 27.304,4.500 27.676 C 4.500 28.536,4.828 29.851,5.113 30.137 C 5.234 30.258,5.333 30.464,5.333 30.595 C 5.333 30.726,5.408 30.833,5.500 30.833 C 5.592 30.833,5.667 30.927,5.667 31.042 C 5.667 31.391,7.322 33.325,7.625 33.330 C 7.740 33.332,7.833 33.403,7.833 33.489 C 7.833 33.575,8.096 33.740,8.417 33.856 C 8.737 33.972,9.000 34.117,9.000 34.178 C 9.000 34.240,9.356 34.388,9.792 34.508 C 10.227 34.627,10.637 34.806,10.702 34.904 C 10.884 35.178,17.700 35.150,17.792 34.875 C 17.830 34.760,18.004 34.667,18.178 34.667 C 18.654 34.667,20.000 34.281,20.000 34.145 C 20.000 34.079,20.281 33.934,20.625 33.823 C 20.969 33.711,21.310 33.518,21.383 33.393 C 21.457 33.269,21.617 33.167,21.740 33.167 C 21.864 33.167,22.008 33.054,22.060 32.917 C 22.113 32.779,22.264 32.667,22.396 32.667 C 22.528 32.667,23.081 32.217,23.626 31.668 L 24.615 30.669 24.933 31.293 C 25.107 31.636,25.288 31.954,25.334 32.000 C 25.380 32.046,25.530 32.308,25.667 32.582 C 26.508 34.261,28.606 35.084,29.575 34.116 C 29.730 33.960,29.915 33.833,29.986 33.833 C 30.057 33.833,30.296 33.685,30.516 33.503 C 30.736 33.321,30.992 33.111,31.083 33.036 C 31.175 32.961,31.388 32.847,31.557 32.782 C 31.727 32.718,31.904 32.515,31.952 32.332 C 32.000 32.150,32.105 32.000,32.186 32.000 C 32.267 32.000,32.333 31.738,32.333 31.417 C 32.333 31.096,32.270 30.833,32.193 30.833 C 32.116 30.833,31.954 30.533,31.833 30.167 C 31.712 29.800,31.554 29.500,31.481 29.500 C 31.408 29.500,31.299 29.238,31.239 28.917 C 31.179 28.596,31.073 28.333,31.004 28.333 C 30.620 28.333,30.500 26.040,30.500 18.722 C 30.500 14.475,30.440 11.000,30.367 11.000 C 30.294 11.000,30.147 10.313,30.041 9.473 C 29.935 8.633,29.776 7.901,29.687 7.846 C 29.599 7.791,29.471 7.525,29.403 7.254 C 29.335 6.983,29.212 6.684,29.130 6.589 C 29.047 6.494,28.836 6.192,28.659 5.917 C 27.759 4.514,27.377 4.086,26.890 3.933 C 26.693 3.871,26.489 3.711,26.437 3.577 C 26.386 3.443,26.229 3.333,26.089 3.333 C 25.948 3.333,25.833 3.264,25.833 3.180 C 25.833 3.095,25.552 2.934,25.208 2.822 C 24.865 2.710,24.546 2.566,24.500 2.503 C 24.389 2.349,22.959 2.000,22.440 2.000 C 22.213 2.000,21.998 1.912,21.962 1.804 C 21.895 1.602,16.317 1.457,14.625 1.612 M88.375 1.611 C 87.985 1.652,87.667 1.744,87.667 1.816 C 87.667 1.888,87.142 2.046,86.500 2.167 C 85.858 2.288,85.333 2.447,85.333 2.520 C 85.333 2.593,85.033 2.743,84.667 2.853 C 84.300 2.963,84.000 3.116,84.000 3.193 C 84.000 3.270,83.885 3.333,83.745 3.333 C 83.604 3.333,83.446 3.446,83.394 3.583 C 83.341 3.721,83.222 3.833,83.129 3.833 C 82.888 3.833,80.836 5.876,80.834 6.117 C 80.834 6.227,80.738 6.377,80.621 6.450 C 80.359 6.616,80.000 7.410,80.000 7.827 C 80.000 7.999,79.919 8.166,79.821 8.199 C 79.722 8.231,79.600 8.725,79.548 9.296 C 79.496 9.866,79.389 10.333,79.310 10.333 C 79.231 10.333,79.167 10.633,79.167 11.000 C 79.167 11.367,79.231 11.667,79.311 11.667 C 79.390 11.667,79.494 12.164,79.543 12.771 C 79.592 13.378,79.701 13.922,79.786 13.979 C 79.872 14.037,80.038 14.435,80.156 14.864 C 80.274 15.294,80.475 15.685,80.602 15.734 C 80.729 15.783,80.833 15.900,80.833 15.995 C 80.833 16.224,82.938 18.333,83.166 18.333 C 83.264 18.333,83.384 18.437,83.433 18.565 C 83.481 18.692,83.854 18.889,84.261 19.003 C 84.667 19.117,85.000 19.267,85.000 19.336 C 85.000 19.406,85.262 19.512,85.583 19.572 C 85.904 19.633,86.167 19.743,86.167 19.818 C 86.167 19.893,86.617 20.050,87.167 20.167 C 87.717 20.283,88.167 20.432,88.167 20.496 C 88.167 20.560,88.692 20.712,89.333 20.833 C 89.975 20.954,90.500 21.110,90.500 21.179 C 90.500 21.248,90.800 21.355,91.167 21.417 C 91.533 21.479,91.833 21.586,91.833 21.655 C 91.833 21.724,92.246 21.873,92.750 21.985 C 93.254 22.098,93.667 22.254,93.667 22.332 C 93.667 22.410,93.938 22.564,94.269 22.673 C 95.201 22.980,96.139 24.022,96.365 24.999 C 96.569 25.883,96.311 27.667,95.979 27.667 C 95.890 27.667,95.744 27.874,95.655 28.127 C 95.560 28.402,95.278 28.682,94.956 28.822 C 94.659 28.951,94.377 29.115,94.329 29.186 C 94.281 29.256,93.869 29.411,93.413 29.529 C 92.957 29.648,92.530 29.821,92.464 29.914 C 92.305 30.141,86.681 30.121,86.529 29.893 C 86.467 29.801,85.760 29.625,84.958 29.503 C 84.156 29.380,83.500 29.230,83.500 29.170 C 83.500 29.110,83.125 28.958,82.667 28.833 C 82.208 28.709,81.833 28.548,81.833 28.477 C 81.833 28.406,81.571 28.299,81.250 28.239 C 80.929 28.179,80.667 28.063,80.667 27.981 C 80.667 27.720,79.682 27.823,79.335 28.120 C 78.671 28.689,78.886 32.590,79.591 32.767 C 79.803 32.820,80.016 32.969,80.066 33.098 C 80.116 33.228,80.271 33.333,80.411 33.333 C 80.552 33.333,80.667 33.409,80.667 33.501 C 80.667 33.593,81.004 33.758,81.417 33.869 C 81.829 33.979,82.167 34.123,82.167 34.189 C 82.167 34.255,82.729 34.400,83.417 34.511 C 84.104 34.622,84.667 34.770,84.667 34.841 C 84.667 34.911,85.380 35.022,86.253 35.088 C 87.125 35.153,87.879 35.273,87.929 35.353 C 88.046 35.542,92.000 35.547,92.000 35.358 C 92.000 35.280,92.614 35.169,93.363 35.111 C 94.113 35.053,94.769 34.944,94.822 34.868 C 94.874 34.792,95.348 34.635,95.875 34.519 C 96.402 34.404,96.833 34.252,96.833 34.181 C 96.833 34.111,97.133 33.954,97.500 33.833 C 97.867 33.712,98.167 33.550,98.167 33.473 C 98.167 33.396,98.282 33.333,98.422 33.333 C 98.562 33.333,98.720 33.221,98.773 33.083 C 98.826 32.946,98.960 32.833,99.072 32.833 C 99.356 32.833,101.118 31.084,101.248 30.672 C 101.307 30.486,101.420 30.333,101.498 30.333 C 101.577 30.333,101.733 30.054,101.846 29.713 C 101.958 29.372,102.147 28.996,102.265 28.878 C 102.383 28.759,102.532 28.139,102.595 27.498 C 102.658 26.857,102.775 26.333,102.855 26.333 C 102.935 26.333,103.000 25.883,103.000 25.333 C 103.000 24.778,102.926 24.333,102.833 24.333 C 102.742 24.333,102.667 24.077,102.667 23.763 C 102.667 23.049,102.317 21.500,102.156 21.500 C 102.090 21.500,101.994 21.331,101.942 21.125 C 101.773 20.454,100.223 18.746,99.409 18.334 C 99.138 18.196,98.861 17.998,98.794 17.894 C 98.726 17.789,98.473 17.654,98.232 17.594 C 97.991 17.533,97.684 17.375,97.551 17.242 C 97.418 17.109,97.127 17.000,96.905 17.000 C 96.682 17.000,96.500 16.935,96.500 16.856 C 96.500 16.777,96.050 16.617,95.500 16.500 C 94.950 16.383,94.500 16.233,94.500 16.167 C 94.500 16.100,94.050 15.950,93.500 15.833 C 92.950 15.717,92.500 15.563,92.500 15.492 C 92.500 15.421,91.975 15.275,91.333 15.167 C 90.692 15.058,90.167 14.905,90.167 14.826 C 90.167 14.747,89.904 14.633,89.583 14.572 C 89.263 14.512,89.000 14.399,89.000 14.321 C 89.000 14.244,88.700 14.090,88.333 13.980 C 87.967 13.870,87.667 13.717,87.667 13.640 C 87.667 13.563,87.568 13.500,87.447 13.500 C 87.257 13.500,86.994 13.235,85.957 12.004 C 85.668 11.660,85.713 9.456,86.017 9.097 C 86.806 8.163,87.313 7.667,87.478 7.667 C 87.582 7.667,87.667 7.605,87.667 7.529 C 87.667 7.373,89.145 7.000,89.763 7.000 C 89.985 7.000,90.167 6.925,90.167 6.833 C 90.167 6.733,90.861 6.667,91.917 6.667 C 92.972 6.667,93.667 6.733,93.667 6.833 C 93.667 6.925,93.896 7.000,94.176 7.000 C 94.956 7.000,97.000 7.366,97.000 7.506 C 97.000 7.574,97.263 7.679,97.583 7.739 C 97.904 7.799,98.167 7.911,98.167 7.988 C 98.167 8.391,100.407 8.623,100.875 8.268 C 101.179 8.037,101.335 4.500,101.041 4.500 C 100.971 4.500,100.815 4.275,100.693 4.000 C 100.572 3.725,100.363 3.500,100.231 3.500 C 100.098 3.500,99.949 3.394,99.899 3.264 C 99.849 3.134,99.420 2.935,98.946 2.823 C 98.471 2.710,98.042 2.556,97.992 2.479 C 97.942 2.402,97.304 2.249,96.575 2.138 C 95.846 2.027,95.202 1.866,95.144 1.781 C 95.033 1.618,89.597 1.481,88.375 1.611 M33.542 2.583 C 33.304 2.852,33.254 4.667,33.484 4.667 C 33.567 4.667,33.687 5.042,33.750 5.500 C 33.813 5.958,33.924 6.333,33.997 6.333 C 34.069 6.333,34.221 6.821,34.333 7.417 C 34.446 8.012,34.597 8.500,34.670 8.500 C 34.743 8.500,34.892 9.025,35.000 9.667 C 35.108 10.308,35.258 10.833,35.334 10.833 C 35.409 10.833,35.521 11.133,35.583 11.500 C 35.645 11.867,35.747 12.167,35.810 12.167 C 35.873 12.167,36.020 12.671,36.136 13.287 C 36.253 13.903,36.408 14.446,36.480 14.495 C 36.552 14.544,36.708 15.052,36.828 15.625 C 36.948 16.198,37.093 16.667,37.151 16.667 C 37.210 16.667,37.353 17.173,37.470 17.792 C 37.587 18.410,37.752 18.941,37.837 18.971 C 37.922 19.001,38.041 19.394,38.101 19.846 C 38.161 20.297,38.267 20.667,38.337 20.667 C 38.407 20.667,38.561 21.154,38.679 21.750 C 38.798 22.346,38.947 22.833,39.012 22.833 C 39.076 22.833,39.221 23.321,39.333 23.917 C 39.446 24.512,39.596 25.000,39.667 25.000 C 39.737 25.000,39.846 25.337,39.908 25.750 C 39.970 26.162,40.084 26.500,40.162 26.500 C 40.240 26.500,40.392 27.025,40.500 27.667 C 40.608 28.308,40.758 28.833,40.833 28.833 C 40.908 28.833,41.064 29.358,41.178 30.000 C 41.293 30.642,41.439 31.167,41.504 31.167 C 41.568 31.167,41.717 31.617,41.833 32.167 C 41.950 32.717,42.110 33.167,42.189 33.167 C 42.269 33.167,42.333 33.268,42.333 33.391 C 42.333 34.670,48.549 35.101,49.185 33.866 C 49.312 33.619,49.478 33.371,49.553 33.316 C 49.629 33.261,49.773 32.680,49.875 32.024 C 49.976 31.369,50.112 30.833,50.176 30.833 C 50.240 30.833,50.386 30.233,50.500 29.500 C 50.614 28.767,50.765 28.167,50.834 28.167 C 50.904 28.167,51.013 27.679,51.077 27.083 C 51.141 26.488,51.253 26.000,51.327 26.000 C 51.400 26.000,51.558 25.400,51.677 24.667 C 51.796 23.933,51.948 23.333,52.015 23.333 C 52.082 23.333,52.230 22.658,52.342 21.833 C 52.455 21.008,52.603 20.333,52.670 20.333 C 52.737 20.333,52.886 19.733,53.000 19.000 C 53.114 18.267,53.264 17.667,53.332 17.667 C 53.401 17.667,53.508 17.217,53.570 16.667 C 53.632 16.117,53.742 15.667,53.815 15.667 C 53.887 15.667,54.045 15.029,54.167 14.250 C 54.288 13.471,54.446 12.833,54.519 12.833 C 54.591 12.833,54.706 12.365,54.774 11.792 C 54.843 11.219,54.927 10.881,54.962 11.042 C 54.996 11.202,55.087 11.333,55.163 11.333 C 55.238 11.333,55.353 11.783,55.417 12.333 C 55.481 12.883,55.591 13.333,55.663 13.333 C 55.734 13.333,55.886 13.933,56.000 14.667 C 56.114 15.400,56.263 16.000,56.330 16.000 C 56.398 16.000,56.554 16.675,56.676 17.500 C 56.798 18.325,56.945 19.000,57.002 19.000 C 57.060 19.000,57.204 19.601,57.324 20.336 C 57.443 21.071,57.599 21.708,57.671 21.753 C 57.743 21.797,57.854 22.209,57.917 22.667 C 57.980 23.125,58.089 23.500,58.159 23.500 C 58.229 23.500,58.387 24.175,58.509 25.000 C 58.631 25.825,58.780 26.500,58.839 26.500 C 58.898 26.500,59.045 27.138,59.167 27.917 C 59.288 28.696,59.445 29.333,59.515 29.333 C 59.585 29.333,59.694 29.746,59.757 30.250 C 59.820 30.754,59.926 31.167,59.993 31.167 C 60.059 31.167,60.209 31.704,60.327 32.361 C 60.684 34.359,60.794 34.417,64.229 34.417 C 66.342 34.417,67.073 34.364,67.125 34.208 C 67.163 34.094,67.301 34.000,67.431 34.000 C 67.571 34.000,67.750 33.693,67.869 33.250 C 67.979 32.837,68.119 32.500,68.180 32.500 C 68.241 32.500,68.340 32.125,68.401 31.667 C 68.462 31.208,68.574 30.833,68.650 30.833 C 68.726 30.833,68.883 30.383,69.000 29.833 C 69.117 29.283,69.260 28.833,69.318 28.833 C 69.376 28.833,69.520 28.329,69.636 27.713 C 69.753 27.097,69.914 26.553,69.993 26.504 C 70.072 26.456,70.233 25.947,70.352 25.374 C 70.470 24.802,70.618 24.333,70.681 24.333 C 70.744 24.333,70.846 23.996,70.908 23.583 C 70.970 23.171,71.083 22.833,71.159 22.833 C 71.235 22.833,71.394 22.346,71.512 21.750 C 71.631 21.154,71.781 20.667,71.845 20.667 C 71.910 20.667,72.054 20.179,72.167 19.583 C 72.279 18.987,72.433 18.500,72.509 18.500 C 72.584 18.500,72.697 18.162,72.759 17.750 C 72.821 17.337,72.927 17.000,72.996 17.000 C 73.065 17.000,73.217 16.550,73.333 16.000 C 73.450 15.450,73.598 15.000,73.663 15.000 C 73.727 15.000,73.874 14.475,73.988 13.833 C 74.103 13.192,74.255 12.667,74.326 12.667 C 74.397 12.667,74.550 12.217,74.667 11.667 C 74.783 11.117,74.934 10.667,75.001 10.667 C 75.069 10.667,75.173 10.292,75.234 9.833 C 75.295 9.375,75.407 9.000,75.483 9.000 C 75.559 9.000,75.717 8.550,75.833 8.000 C 75.950 7.450,76.093 7.000,76.151 7.000 C 76.210 7.000,76.353 6.494,76.470 5.875 C 76.587 5.256,76.754 4.725,76.841 4.694 C 77.124 4.595,77.038 2.667,76.750 2.667 C 76.612 2.667,76.500 2.592,76.500 2.500 C 76.500 2.396,75.556 2.333,74.000 2.333 C 72.444 2.333,71.500 2.396,71.500 2.500 C 71.500 2.592,71.393 2.667,71.262 2.667 C 70.854 2.667,70.345 3.500,70.232 4.352 C 70.172 4.800,70.069 5.167,70.001 5.167 C 69.934 5.167,69.788 5.729,69.677 6.417 C 69.567 7.104,69.415 7.667,69.342 7.667 C 69.268 7.667,69.114 8.267,69.000 9.000 C 68.886 9.733,68.735 10.333,68.665 10.333 C 68.596 10.333,68.487 10.746,68.424 11.250 C 68.361 11.754,68.254 12.167,68.187 12.167 C 68.120 12.167,67.970 12.729,67.855 13.417 C 67.739 14.104,67.587 14.667,67.516 14.667 C 67.445 14.667,67.288 15.304,67.167 16.083 C 67.045 16.862,66.890 17.500,66.822 17.500 C 66.754 17.500,66.646 17.875,66.583 18.333 C 66.520 18.791,66.411 19.202,66.341 19.245 C 66.270 19.289,66.112 19.889,65.990 20.579 C 65.867 21.269,65.716 21.833,65.653 21.833 C 65.591 21.833,65.442 22.433,65.323 23.167 C 65.204 23.900,65.055 24.500,64.993 24.500 C 64.930 24.500,64.788 25.063,64.677 25.750 C 64.438 27.231,64.234 27.345,64.076 26.083 C 64.013 25.579,63.902 25.167,63.829 25.167 C 63.756 25.167,63.604 24.492,63.491 23.667 C 63.378 22.842,63.231 22.167,63.163 22.167 C 63.096 22.167,62.947 21.548,62.832 20.792 C 62.717 20.035,62.564 19.342,62.494 19.250 C 62.423 19.158,62.311 18.727,62.247 18.292 C 62.182 17.856,62.073 17.500,62.005 17.500 C 61.937 17.500,61.788 16.825,61.676 16.000 C 61.563 15.175,61.413 14.500,61.342 14.500 C 61.272 14.500,61.122 13.825,61.009 13.000 C 60.896 12.175,60.742 11.500,60.666 11.500 C 60.590 11.500,60.432 10.825,60.315 10.000 C 60.198 9.175,60.048 8.500,59.980 8.500 C 59.913 8.500,59.806 8.087,59.743 7.583 C 59.680 7.079,59.570 6.667,59.498 6.667 C 59.426 6.667,59.277 6.029,59.167 5.250 C 59.056 4.471,58.909 3.833,58.840 3.833 C 58.771 3.833,58.645 3.590,58.560 3.292 C 58.442 2.874,58.302 2.738,57.953 2.697 C 57.704 2.668,57.500 2.575,57.500 2.489 C 57.500 2.272,52.706 2.287,52.451 2.506 C 52.341 2.600,52.114 2.772,51.947 2.887 C 51.772 3.008,51.605 3.390,51.550 3.798 C 51.499 4.184,51.396 4.500,51.323 4.500 C 51.250 4.500,51.139 4.912,51.076 5.417 C 51.013 5.921,50.903 6.333,50.831 6.333 C 50.760 6.333,50.611 6.971,50.500 7.750 C 50.389 8.529,50.242 9.167,50.173 9.167 C 50.103 9.167,49.946 9.842,49.824 10.667 C 49.702 11.492,49.554 12.167,49.495 12.167 C 49.435 12.167,49.288 12.804,49.167 13.583 C 49.045 14.363,48.891 15.000,48.823 15.000 C 48.755 15.000,48.647 15.450,48.583 16.000 C 48.519 16.550,48.406 17.000,48.331 17.000 C 48.256 17.000,48.099 17.675,47.982 18.500 C 47.865 19.325,47.718 20.000,47.655 20.000 C 47.592 20.000,47.447 20.600,47.333 21.333 C 47.219 22.067,47.070 22.667,47.001 22.667 C 46.933 22.667,46.825 23.117,46.763 23.667 C 46.701 24.217,46.587 24.667,46.511 24.667 C 46.434 24.667,46.319 25.087,46.255 25.600 C 46.100 26.840,45.792 26.448,45.485 24.622 C 45.366 23.913,45.217 23.333,45.155 23.333 C 45.092 23.333,44.947 22.733,44.833 22.000 C 44.719 21.267,44.569 20.667,44.499 20.667 C 44.429 20.667,44.320 20.254,44.257 19.750 C 44.194 19.246,44.085 18.833,44.015 18.833 C 43.945 18.833,43.788 18.196,43.667 17.417 C 43.545 16.637,43.388 16.000,43.317 16.000 C 43.246 16.000,43.094 15.438,42.978 14.750 C 42.863 14.063,42.713 13.500,42.646 13.500 C 42.579 13.500,42.472 13.088,42.409 12.583 C 42.346 12.079,42.238 11.667,42.168 11.667 C 42.098 11.667,41.947 11.067,41.833 10.333 C 41.719 9.600,41.569 9.000,41.500 9.000 C 41.431 9.000,41.281 8.400,41.167 7.667 C 41.053 6.933,40.908 6.333,40.845 6.333 C 40.783 6.333,40.637 5.771,40.522 5.083 C 40.406 4.396,40.247 3.833,40.169 3.833 C 40.091 3.833,39.978 3.612,39.918 3.341 C 39.858 3.065,39.669 2.804,39.488 2.746 C 39.311 2.690,39.167 2.574,39.167 2.489 C 39.167 2.215,33.786 2.305,33.542 2.583 M165.208 4.110 C 165.002 4.154,164.833 4.254,164.833 4.332 C 164.833 4.410,164.603 4.524,164.322 4.586 C 164.041 4.648,163.770 4.804,163.721 4.932 C 163.671 5.061,163.549 5.167,163.450 5.167 C 163.189 5.167,162.333 6.021,162.333 6.281 C 162.333 6.402,162.258 6.500,162.167 6.500 C 162.075 6.500,162.000 6.607,162.000 6.738 C 162.000 6.869,161.869 7.107,161.708 7.268 C 161.467 7.509,161.417 7.866,161.417 9.333 C 161.417 10.800,161.467 11.158,161.708 11.399 C 161.869 11.559,162.000 11.756,162.000 11.837 C 162.000 12.065,163.409 13.500,163.633 13.500 C 163.743 13.500,163.833 13.570,163.833 13.656 C 163.833 13.742,164.096 13.907,164.417 14.023 C 164.737 14.139,165.000 14.285,165.000 14.348 C 165.000 14.411,165.262 14.512,165.583 14.572 C 165.904 14.633,166.167 14.739,166.167 14.809 C 166.167 14.880,166.558 15.037,167.037 15.160 C 167.515 15.283,168.008 15.484,168.132 15.608 C 168.256 15.732,168.534 15.833,168.750 15.833 C 168.966 15.833,169.249 15.939,169.378 16.069 C 169.508 16.198,169.926 16.398,170.307 16.512 C 170.688 16.626,171.000 16.775,171.000 16.842 C 171.000 16.910,171.188 17.142,171.417 17.358 C 171.648 17.575,171.880 18.028,171.938 18.375 C 171.996 18.719,172.108 19.000,172.188 19.000 C 172.268 19.000,172.333 19.112,172.333 19.250 C 172.333 19.387,172.276 19.500,172.206 19.500 C 172.136 19.500,171.992 19.864,171.886 20.310 C 171.700 21.093,171.065 22.000,170.701 22.000 C 170.604 22.000,170.425 22.099,170.304 22.220 C 169.564 22.958,163.625 23.035,163.158 22.312 C 163.107 22.234,162.713 22.121,162.283 22.062 L 161.500 21.955 161.500 22.883 C 161.500 23.693,161.547 23.826,161.867 23.927 C 162.069 23.992,162.328 24.137,162.442 24.252 C 162.556 24.366,163.066 24.512,163.575 24.575 C 164.084 24.639,164.500 24.760,164.500 24.845 C 164.500 24.934,165.638 25.000,167.167 25.000 C 168.633 25.000,169.833 24.938,169.833 24.862 C 169.833 24.786,170.211 24.637,170.672 24.530 C 171.133 24.424,171.619 24.242,171.752 24.127 C 172.906 23.124,173.643 22.336,173.750 21.993 C 173.821 21.768,173.962 21.530,174.064 21.464 C 174.185 21.387,174.250 20.609,174.250 19.250 C 174.250 17.891,174.185 17.113,174.064 17.036 C 173.962 16.970,173.821 16.729,173.751 16.500 C 173.631 16.111,172.743 15.167,172.495 15.167 C 172.434 15.167,172.211 15.017,172.000 14.833 C 171.789 14.650,171.515 14.500,171.391 14.500 C 171.268 14.500,171.167 14.430,171.167 14.345 C 171.167 14.260,170.754 14.098,170.250 13.985 C 169.746 13.873,169.333 13.725,169.333 13.657 C 169.333 13.589,168.958 13.443,168.500 13.333 C 168.042 13.223,167.667 13.066,167.667 12.983 C 167.667 12.901,167.533 12.833,167.370 12.833 C 167.207 12.833,166.926 12.737,166.745 12.619 C 166.565 12.502,166.132 12.308,165.785 12.189 C 164.628 11.794,163.789 10.811,163.701 9.746 C 163.630 8.886,163.916 7.334,164.147 7.333 C 164.203 7.333,164.474 7.140,164.748 6.904 C 165.023 6.669,165.454 6.434,165.707 6.384 C 165.960 6.333,166.167 6.226,166.167 6.146 C 166.167 6.066,166.992 6.000,168.000 6.000 C 169.008 6.000,169.833 6.065,169.833 6.145 C 169.833 6.287,170.524 6.418,172.292 6.612 L 173.167 6.708 173.167 5.787 L 173.167 4.867 172.292 4.659 C 171.810 4.545,171.363 4.369,171.298 4.267 C 171.177 4.080,165.975 3.945,165.208 4.110 M126.167 14.511 L 126.167 24.522 131.137 24.469 C 135.606 24.422,136.137 24.387,136.399 24.125 C 136.559 23.965,136.798 23.833,136.929 23.833 C 137.060 23.833,137.167 23.758,137.167 23.667 C 137.167 23.575,137.264 23.500,137.382 23.500 C 137.769 23.500,138.791 22.384,139.005 21.727 C 139.121 21.373,139.298 21.030,139.399 20.964 C 139.731 20.750,139.635 16.944,139.289 16.598 C 139.130 16.439,139.000 16.230,139.000 16.133 C 139.000 15.896,137.594 14.500,137.355 14.500 C 137.252 14.500,137.167 14.434,137.167 14.353 C 137.167 14.272,136.998 14.154,136.792 14.092 C 136.549 14.018,136.494 13.946,136.634 13.888 C 136.932 13.766,137.667 13.019,137.667 12.838 C 137.667 12.757,137.790 12.567,137.941 12.416 C 138.619 11.738,138.658 7.167,137.986 7.167 C 137.902 7.167,137.833 7.052,137.833 6.911 C 137.833 6.771,137.721 6.613,137.583 6.560 C 137.446 6.508,137.333 6.364,137.333 6.241 C 137.333 5.992,136.328 5.167,136.026 5.167 C 135.920 5.167,135.833 5.101,135.833 5.020 C 135.833 4.657,134.151 4.500,130.260 4.500 L 126.167 4.500 126.167 14.511 M143.333 14.512 L 143.333 24.524 147.923 24.470 C 151.086 24.433,152.549 24.358,152.631 24.229 C 152.697 24.126,152.994 23.989,153.292 23.924 C 153.590 23.860,153.833 23.746,153.833 23.671 C 153.833 23.597,154.007 23.493,154.219 23.439 C 154.432 23.386,154.769 23.209,154.970 23.046 C 155.170 22.883,155.559 22.566,155.834 22.341 C 156.109 22.116,156.333 21.833,156.333 21.711 C 156.333 21.589,156.444 21.447,156.578 21.396 C 156.713 21.344,156.916 21.046,157.028 20.734 C 157.141 20.422,157.288 20.167,157.354 20.167 C 157.420 20.167,157.526 19.923,157.591 19.625 C 157.656 19.327,157.770 19.044,157.844 18.996 C 158.461 18.601,158.440 10.561,157.821 9.925 C 157.736 9.838,157.667 9.637,157.667 9.479 C 157.667 9.320,157.565 9.089,157.442 8.966 C 157.318 8.842,157.121 8.451,157.004 8.096 C 156.887 7.741,156.529 7.218,156.208 6.934 C 155.887 6.649,155.504 6.285,155.358 6.125 C 155.212 5.965,154.997 5.833,154.880 5.833 C 154.762 5.833,154.667 5.754,154.667 5.658 C 154.667 5.562,154.442 5.404,154.167 5.308 C 153.892 5.212,153.667 5.079,153.667 5.013 C 153.667 4.698,151.259 4.500,147.439 4.500 L 143.333 4.500 143.333 14.512 M178.000 14.500 L 178.000 24.500 179.000 24.500 L 180.000 24.500 180.000 14.500 L 180.000 4.500 179.000 4.500 L 178.000 4.500 178.000 14.500 M148.833 6.167 C 148.833 6.259,149.274 6.333,149.821 6.333 C 150.883 6.333,152.500 6.645,152.500 6.849 C 152.500 6.918,152.762 7.061,153.083 7.167 C 153.404 7.273,153.667 7.422,153.667 7.499 C 153.667 7.576,153.892 7.851,154.167 8.110 C 154.442 8.370,154.667 8.668,154.667 8.773 C 154.667 8.878,154.779 9.008,154.917 9.060 C 155.054 9.113,155.167 9.265,155.167 9.398 C 155.167 9.530,155.238 9.664,155.325 9.694 C 155.413 9.725,155.580 10.256,155.697 10.875 C 155.814 11.494,155.967 12.000,156.038 12.000 C 156.109 12.000,156.167 13.125,156.167 14.500 C 156.167 15.875,156.107 17.000,156.033 17.000 C 155.960 17.000,155.805 17.460,155.689 18.023 C 155.499 18.943,155.258 19.483,154.751 20.131 C 154.309 20.697,153.531 21.500,153.427 21.500 C 153.362 21.500,153.197 21.612,153.060 21.750 C 152.922 21.887,152.609 22.049,152.363 22.109 C 152.118 22.169,151.870 22.289,151.814 22.375 C 151.691 22.561,148.855 22.816,146.792 22.826 L 145.333 22.833 145.333 14.417 L 145.333 6.000 147.083 6.000 C 148.139 6.000,148.833 6.066,148.833 6.167 M133.030 6.486 C 133.846 6.571,134.410 6.719,134.584 6.893 C 134.734 7.044,134.967 7.167,135.100 7.167 C 135.234 7.167,135.393 7.298,135.454 7.458 C 135.515 7.619,135.663 7.849,135.782 7.970 C 135.902 8.091,136.000 8.335,136.000 8.512 C 136.000 8.689,136.075 8.833,136.167 8.833 C 136.259 8.833,136.333 9.278,136.333 9.833 C 136.333 10.389,136.259 10.833,136.167 10.833 C 136.075 10.833,136.000 10.986,136.000 11.172 C 136.000 11.358,135.887 11.554,135.750 11.606 C 135.612 11.659,135.499 11.788,135.499 11.893 C 135.498 12.105,134.501 12.833,134.212 12.833 C 134.111 12.833,134.002 12.910,133.971 13.005 C 133.937 13.107,132.791 13.218,131.123 13.281 L 128.333 13.385 128.333 9.859 L 128.333 6.333 130.042 6.342 C 130.981 6.347,132.326 6.412,133.030 6.486 M134.809 15.456 C 134.868 15.549,135.154 15.676,135.444 15.739 C 136.184 15.900,136.949 16.692,137.177 17.535 C 137.406 18.381,137.260 20.503,136.955 20.750 C 136.842 20.842,136.643 21.124,136.512 21.377 C 136.352 21.688,136.054 21.902,135.596 22.036 C 135.222 22.145,134.868 22.304,134.809 22.390 C 134.750 22.476,133.269 22.584,131.517 22.630 L 128.333 22.713 128.333 18.917 L 128.333 15.120 131.517 15.203 C 133.393 15.253,134.746 15.356,134.809 15.456 M20.340 20.180 C 21.572 20.278,22.619 20.422,22.666 20.499 C 22.714 20.576,23.015 20.664,23.335 20.695 L 23.917 20.750 23.966 22.076 C 24.018 23.475,23.778 25.488,23.539 25.653 C 23.461 25.706,23.294 26.007,23.167 26.320 C 22.859 27.079,21.041 28.833,20.561 28.833 C 20.449 28.833,20.241 28.949,20.099 29.091 C 19.957 29.233,19.408 29.437,18.879 29.545 C 18.350 29.653,17.867 29.812,17.805 29.900 C 17.641 30.134,14.010 30.120,13.865 29.884 C 13.800 29.779,13.535 29.640,13.277 29.575 C 13.018 29.510,12.770 29.362,12.725 29.245 C 12.680 29.128,12.499 28.995,12.322 28.949 C 12.145 28.902,12.000 28.753,12.000 28.617 C 12.000 28.480,11.895 28.329,11.766 28.279 C 11.637 28.230,11.477 27.940,11.411 27.636 C 11.345 27.332,11.212 27.033,11.115 26.971 C 10.870 26.815,10.880 23.623,11.127 23.541 C 11.230 23.507,11.398 23.225,11.500 22.916 C 11.762 22.123,12.900 21.042,13.727 20.801 C 14.106 20.690,14.462 20.535,14.517 20.455 C 14.615 20.314,16.330 20.066,17.508 20.022 C 17.834 20.010,19.108 20.081,20.340 20.180 M158.000 41.176 C 158.000 51.748,158.032 52.172,158.852 52.535 C 159.117 52.652,159.333 52.805,159.333 52.874 C 159.333 52.943,160.008 53.000,160.833 53.000 L 162.333 53.000 162.333 52.083 L 162.333 51.167 161.426 51.167 C 159.905 51.167,160.000 51.844,160.000 40.963 L 160.000 31.500 159.000 31.500 L 158.000 31.500 158.000 41.176 M129.125 32.611 C 128.873 32.654,128.667 32.751,128.667 32.828 C 128.667 32.905,128.442 33.046,128.167 33.142 C 127.892 33.238,127.667 33.395,127.667 33.491 C 127.667 33.588,127.557 33.667,127.422 33.667 C 127.038 33.667,126.230 34.553,126.012 35.212 C 125.904 35.542,125.725 35.842,125.616 35.878 C 125.266 35.995,125.348 39.538,125.708 39.899 C 125.869 40.059,126.000 40.270,126.000 40.367 C 126.000 40.594,127.401 42.000,127.627 42.000 C 127.721 42.000,127.838 42.105,127.888 42.234 C 127.937 42.363,128.208 42.519,128.489 42.581 C 128.770 42.643,129.000 42.748,129.000 42.815 C 129.000 42.882,129.392 43.037,129.870 43.160 C 130.349 43.283,130.841 43.484,130.965 43.608 C 131.089 43.732,131.367 43.833,131.583 43.833 C 131.799 43.833,132.080 43.937,132.206 44.063 C 132.332 44.189,132.675 44.345,132.968 44.410 C 133.260 44.474,133.500 44.590,133.500 44.667 C 133.500 44.744,133.729 44.857,134.009 44.919 C 134.766 45.085,135.828 46.170,135.946 46.898 C 136.000 47.229,136.109 47.500,136.188 47.500 C 136.268 47.500,136.333 47.612,136.333 47.750 C 136.333 47.887,136.268 48.000,136.188 48.000 C 136.108 48.000,135.995 48.300,135.936 48.667 C 135.877 49.033,135.755 49.333,135.665 49.333 C 135.574 49.333,135.500 49.435,135.500 49.559 C 135.500 49.860,134.526 50.655,134.001 50.783 C 133.771 50.839,133.530 50.967,133.464 51.067 C 133.304 51.312,128.201 51.319,128.036 51.075 C 127.913 50.895,126.392 50.500,125.821 50.500 C 125.144 50.500,125.373 52.266,126.083 52.523 C 126.404 52.639,126.667 52.785,126.667 52.848 C 126.667 52.910,127.079 53.013,127.583 53.076 C 128.087 53.139,128.500 53.260,128.500 53.345 C 128.500 53.547,133.616 53.550,133.741 53.348 C 133.793 53.264,134.135 53.145,134.501 53.083 C 134.867 53.021,135.167 52.910,135.167 52.835 C 135.167 52.760,135.390 52.621,135.663 52.526 C 136.274 52.313,137.833 50.670,137.833 50.238 C 137.833 50.123,137.927 49.997,138.042 49.958 C 138.319 49.866,138.340 45.712,138.064 45.536 C 137.962 45.470,137.822 45.237,137.754 45.018 C 137.643 44.662,137.233 44.205,136.422 43.532 C 136.278 43.412,135.936 43.236,135.663 43.140 C 135.390 43.045,135.167 42.905,135.167 42.829 C 135.167 42.753,134.754 42.598,134.250 42.485 C 133.746 42.373,133.333 42.221,133.333 42.148 C 133.333 42.075,133.071 41.966,132.750 41.906 C 132.429 41.845,132.167 41.737,132.167 41.665 C 132.167 41.592,131.792 41.443,131.333 41.333 C 130.875 41.223,130.500 41.084,130.500 41.024 C 130.500 40.964,130.191 40.818,129.813 40.700 C 128.121 40.172,127.247 38.361,127.830 36.593 C 128.027 35.996,128.705 35.167,128.996 35.167 C 129.077 35.167,129.274 35.035,129.435 34.875 C 129.821 34.489,134.585 34.431,134.818 34.809 C 134.903 34.945,135.397 35.070,136.062 35.124 L 137.167 35.212 137.167 34.289 L 137.167 33.367 136.292 33.159 C 135.810 33.045,135.363 32.869,135.298 32.767 C 135.177 32.581,130.069 32.452,129.125 32.611 M191.292 33.180 C 190.900 33.408,190.879 35.022,191.262 35.405 C 191.683 35.826,193.504 35.771,193.618 35.333 C 193.666 35.150,193.772 35.000,193.853 35.000 C 193.934 35.000,194.000 34.700,194.000 34.333 C 194.000 33.967,193.934 33.667,193.853 33.667 C 193.772 33.667,193.666 33.517,193.618 33.333 C 193.520 32.957,191.861 32.848,191.292 33.180 M249.833 43.000 L 249.833 53.000 250.732 53.000 C 251.887 53.000,251.833 53.208,251.833 48.748 L 251.833 45.023 255.695 44.970 C 258.597 44.930,259.573 44.865,259.625 44.708 C 259.663 44.594,259.795 44.500,259.918 44.500 C 260.201 44.500,261.833 42.993,261.833 42.731 C 261.833 42.624,261.946 42.492,262.083 42.440 C 262.221 42.387,262.333 42.160,262.333 41.936 C 262.333 41.711,262.427 41.497,262.542 41.458 C 262.696 41.407,262.750 40.746,262.750 38.917 C 262.750 37.087,262.696 36.426,262.542 36.375 C 262.427 36.337,262.333 36.159,262.333 35.981 C 262.333 35.802,262.221 35.613,262.083 35.560 C 261.946 35.508,261.833 35.365,261.833 35.244 C 261.833 34.974,260.780 33.833,260.530 33.833 C 260.431 33.833,260.290 33.729,260.217 33.601 C 259.942 33.122,258.753 33.002,254.292 33.001 L 249.833 33.000 249.833 43.000 M357.792 33.180 C 357.400 33.408,357.379 35.022,357.762 35.405 C 358.183 35.826,360.004 35.771,360.118 35.333 C 360.166 35.150,360.272 35.000,360.353 35.000 C 360.434 35.000,360.500 34.700,360.500 34.333 C 360.500 33.967,360.434 33.667,360.353 33.667 C 360.272 33.667,360.166 33.517,360.118 33.333 C 360.020 32.957,358.361 32.848,357.792 33.180 M182.167 34.750 C 182.167 34.979,182.092 35.167,182.000 35.167 C 181.901 35.167,181.833 35.806,181.833 36.750 L 181.833 38.333 180.601 38.333 C 179.244 38.333,179.167 38.393,179.167 39.430 L 179.167 40.000 180.500 40.000 L 181.833 40.000 181.833 45.667 C 181.833 49.007,181.896 51.333,181.987 51.333 C 182.071 51.333,182.190 51.559,182.250 51.835 C 182.311 52.110,182.523 52.422,182.722 52.526 C 182.921 52.631,183.137 52.799,183.202 52.900 C 183.341 53.115,186.683 53.252,187.782 53.087 L 188.517 52.977 188.467 52.114 L 188.417 51.250 186.895 51.309 C 183.844 51.428,184.000 51.759,184.000 45.159 L 184.000 40.000 186.250 40.000 L 188.500 40.000 188.500 39.167 L 188.500 38.333 186.250 38.333 L 184.000 38.333 184.000 36.434 C 184.000 34.322,184.006 34.333,182.820 34.333 C 182.234 34.333,182.167 34.376,182.167 34.750 M292.608 34.950 C 292.551 35.299,292.503 36.202,292.502 36.958 L 292.500 38.333 291.321 38.333 C 289.955 38.333,289.667 38.520,289.667 39.405 L 289.667 40.000 291.077 40.000 L 292.488 40.000 292.536 45.840 C 292.568 49.762,292.642 51.718,292.762 51.798 C 292.861 51.863,292.990 52.050,293.050 52.212 C 293.110 52.375,293.292 52.557,293.455 52.617 C 293.617 52.677,293.803 52.806,293.869 52.905 C 294.012 53.120,297.013 53.245,298.273 53.088 L 299.167 52.976 299.167 52.155 C 299.167 51.620,299.094 51.326,298.958 51.313 C 298.844 51.301,297.931 51.283,296.931 51.271 C 295.626 51.256,295.092 51.190,295.041 51.039 C 295.002 50.922,294.864 50.722,294.735 50.592 C 294.543 50.400,294.500 49.414,294.500 45.179 L 294.500 40.000 296.833 40.000 L 299.167 40.000 299.167 39.167 L 299.167 38.333 296.839 38.333 L 294.511 38.333 294.464 36.375 L 294.417 34.417 293.565 34.367 L 292.713 34.318 292.608 34.950 M318.608 34.950 C 318.551 35.299,318.503 36.202,318.502 36.958 L 318.500 38.333 317.321 38.333 C 315.955 38.333,315.667 38.520,315.667 39.405 L 315.667 40.000 317.077 40.000 L 318.488 40.000 318.536 45.840 C 318.568 49.762,318.642 51.718,318.762 51.798 C 318.861 51.863,318.990 52.050,319.050 52.212 C 319.110 52.375,319.292 52.557,319.455 52.617 C 319.617 52.677,319.803 52.806,319.869 52.905 C 320.012 53.120,323.013 53.245,324.273 53.088 L 325.167 52.976 325.167 52.155 C 325.167 51.620,325.094 51.326,324.958 51.313 C 324.844 51.301,323.931 51.283,322.931 51.271 C 321.626 51.256,321.092 51.190,321.041 51.039 C 321.002 50.922,320.864 50.722,320.735 50.592 C 320.543 50.400,320.500 49.414,320.500 45.179 L 320.500 40.000 322.833 40.000 L 325.167 40.000 325.167 39.167 L 325.167 38.333 322.839 38.333 L 320.511 38.333 320.464 36.375 L 320.417 34.417 319.565 34.367 L 318.713 34.318 318.608 34.950 M256.500 34.833 C 256.500 34.925,256.907 35.000,257.405 35.000 C 257.987 35.000,258.399 35.089,258.560 35.250 C 258.697 35.387,258.873 35.500,258.951 35.500 C 259.571 35.500,260.500 37.004,260.500 38.008 C 260.500 38.370,260.575 38.667,260.667 38.667 C 260.758 38.667,260.833 38.854,260.833 39.083 C 260.833 39.313,260.758 39.500,260.667 39.500 C 260.575 39.500,260.500 39.720,260.500 39.989 C 260.500 40.893,259.457 42.500,258.870 42.500 C 258.771 42.500,258.572 42.618,258.427 42.763 C 258.213 42.977,257.570 43.044,254.999 43.122 L 251.833 43.218 251.833 38.942 L 251.833 34.667 254.167 34.667 C 255.611 34.667,256.500 34.730,256.500 34.833 M145.167 38.197 C 144.846 38.289,144.546 38.414,144.500 38.474 C 144.454 38.534,144.192 38.696,143.918 38.834 C 143.415 39.085,142.667 39.782,142.667 39.999 C 142.667 40.063,142.517 40.289,142.333 40.500 C 142.150 40.711,142.000 40.985,142.000 41.109 C 142.000 41.232,141.934 41.333,141.853 41.333 C 141.683 41.333,141.333 42.615,141.333 43.240 C 141.333 43.475,141.258 43.667,141.167 43.667 C 141.065 43.667,141.000 44.444,141.000 45.667 C 141.000 46.889,141.065 47.667,141.167 47.667 C 141.258 47.667,141.333 47.858,141.333 48.093 C 141.333 48.718,141.683 50.000,141.853 50.000 C 141.934 50.000,142.000 50.101,142.000 50.224 C 142.000 50.347,142.187 50.666,142.416 50.932 C 142.646 51.199,142.833 51.510,142.833 51.625 C 142.833 51.740,142.897 51.833,142.974 51.833 C 143.051 51.833,143.333 52.021,143.599 52.250 C 143.865 52.479,144.177 52.666,144.292 52.666 C 144.406 52.667,144.500 52.738,144.500 52.826 C 144.500 52.913,144.762 53.034,145.083 53.094 C 145.404 53.155,145.667 53.270,145.667 53.352 C 145.667 53.433,146.679 53.500,147.917 53.500 C 149.154 53.500,150.167 53.433,150.167 53.352 C 150.167 53.270,150.429 53.155,150.750 53.094 C 151.071 53.034,151.333 52.913,151.333 52.826 C 151.333 52.738,151.445 52.667,151.582 52.667 C 151.719 52.667,151.924 52.517,152.039 52.333 C 152.153 52.150,152.344 52.000,152.462 52.000 C 152.580 52.000,152.727 51.870,152.788 51.712 C 152.848 51.554,153.072 51.263,153.284 51.067 C 153.496 50.870,153.756 50.456,153.862 50.146 C 153.968 49.837,154.113 49.544,154.184 49.496 C 154.409 49.345,154.664 47.311,154.664 45.667 C 154.664 44.022,154.409 41.988,154.184 41.837 C 154.113 41.789,153.972 41.508,153.871 41.212 C 153.769 40.916,153.606 40.578,153.507 40.462 C 152.828 39.662,152.500 39.237,152.500 39.156 C 152.500 39.104,152.237 38.959,151.917 38.833 C 151.596 38.707,151.333 38.552,151.333 38.489 C 151.333 38.050,146.480 37.821,145.167 38.197 M200.853 38.167 C 200.544 38.240,200.244 38.364,200.187 38.442 C 200.130 38.520,199.858 38.695,199.583 38.831 C 198.843 39.197,197.895 40.283,197.725 40.958 C 197.673 41.165,197.573 41.333,197.502 41.333 C 197.346 41.333,197.000 42.647,197.000 43.240 C 197.000 43.475,196.925 43.667,196.833 43.667 C 196.731 43.667,196.667 44.444,196.667 45.667 C 196.667 46.889,196.731 47.667,196.833 47.667 C 196.925 47.667,197.000 47.858,197.000 48.093 C 197.000 48.657,197.342 50.000,197.486 50.000 C 197.549 50.000,197.695 50.262,197.811 50.583 C 197.927 50.904,198.094 51.167,198.182 51.167 C 198.270 51.167,198.413 51.354,198.500 51.583 C 198.587 51.813,198.773 52.000,198.913 52.000 C 199.052 52.000,199.167 52.062,199.167 52.139 C 199.167 52.215,199.373 52.383,199.625 52.514 C 199.877 52.644,200.182 52.844,200.304 52.958 C 200.425 53.073,200.706 53.167,200.929 53.167 C 201.151 53.167,201.333 53.242,201.333 53.333 C 201.333 53.436,202.194 53.500,203.583 53.500 C 204.821 53.500,205.833 53.434,205.833 53.354 C 205.833 53.274,206.060 53.163,206.337 53.108 C 206.820 53.011,207.004 52.900,207.650 52.321 C 207.811 52.176,208.068 52.010,208.221 51.951 C 208.374 51.892,208.500 51.766,208.500 51.672 C 208.500 51.577,208.631 51.355,208.792 51.179 C 209.331 50.584,209.459 50.393,209.585 49.987 C 209.655 49.765,209.772 49.544,209.846 49.496 C 210.457 49.100,210.449 42.214,209.837 41.835 C 209.758 41.787,209.642 41.541,209.578 41.290 C 209.515 41.039,209.406 40.833,209.335 40.833 C 209.265 40.833,209.114 40.608,209.000 40.333 C 208.886 40.058,208.740 39.833,208.675 39.833 C 208.610 39.833,208.463 39.659,208.349 39.446 C 208.235 39.232,207.884 38.965,207.571 38.851 C 207.257 38.738,207.000 38.584,207.000 38.509 C 207.000 38.073,202.350 37.814,200.853 38.167 M218.542 38.199 C 218.060 38.287,217.667 38.416,217.667 38.486 C 217.667 38.556,217.367 38.712,217.000 38.833 C 216.633 38.954,216.333 39.108,216.333 39.174 C 216.333 39.240,216.183 39.334,216.000 39.382 C 215.715 39.456,215.667 39.387,215.667 38.901 L 215.667 38.333 214.583 38.333 L 213.500 38.333 213.500 45.667 L 213.500 53.000 214.583 53.000 L 215.667 53.000 215.667 47.263 L 215.667 41.526 216.250 41.333 C 216.571 41.227,216.833 41.075,216.833 40.993 C 216.833 40.912,217.152 40.761,217.542 40.656 C 217.931 40.551,218.302 40.381,218.367 40.278 C 218.846 39.508,223.333 40.250,223.333 41.100 C 223.333 41.213,223.427 41.337,223.542 41.375 C 223.702 41.428,223.762 42.786,223.803 47.222 L 223.857 53.000 224.845 53.000 L 225.833 53.000 225.829 47.042 C 225.825 40.319,225.780 39.957,224.839 39.025 C 223.807 38.004,221.368 37.684,218.542 38.199 M231.500 38.197 C 231.179 38.288,230.857 38.469,230.783 38.598 C 230.710 38.727,230.540 38.833,230.405 38.833 C 230.270 38.833,230.068 39.040,229.957 39.292 C 229.845 39.544,229.659 39.849,229.544 39.970 C 229.428 40.091,229.333 40.298,229.333 40.429 C 229.333 40.560,229.258 40.667,229.167 40.667 C 229.069 40.667,229.000 41.222,229.000 42.000 C 229.000 42.733,229.067 43.333,229.149 43.333 C 229.230 43.333,229.346 43.526,229.405 43.762 C 229.584 44.477,230.922 45.606,231.782 45.767 C 232.085 45.824,232.333 45.937,232.333 46.019 C 232.333 46.100,232.453 46.167,232.599 46.167 C 232.746 46.167,233.064 46.277,233.308 46.412 C 233.551 46.547,234.069 46.737,234.458 46.835 C 234.848 46.933,235.167 47.077,235.167 47.155 C 235.167 47.233,235.370 47.348,235.618 47.410 C 237.427 47.864,237.395 50.810,235.576 51.267 C 235.351 51.323,235.167 51.436,235.167 51.518 C 235.167 51.600,234.379 51.667,233.417 51.667 C 232.454 51.667,231.667 51.601,231.667 51.521 C 231.667 51.442,231.292 51.327,230.833 51.266 C 230.375 51.205,230.000 51.083,230.000 50.994 C 230.000 50.765,229.272 50.795,229.033 51.033 C 228.685 51.382,228.780 52.517,229.167 52.618 C 229.350 52.666,229.500 52.769,229.500 52.847 C 229.500 52.925,229.875 53.038,230.333 53.099 C 230.792 53.160,231.167 53.275,231.167 53.355 C 231.167 53.561,235.789 53.540,235.917 53.333 C 235.973 53.242,236.160 53.167,236.331 53.167 C 236.503 53.167,236.755 53.054,236.893 52.917 C 237.030 52.779,237.204 52.667,237.280 52.667 C 237.624 52.666,238.672 51.513,238.769 51.028 C 238.827 50.738,238.941 50.500,239.021 50.500 C 239.101 50.500,239.167 49.938,239.167 49.250 C 239.167 48.563,239.101 48.000,239.021 48.000 C 238.941 48.000,238.828 47.767,238.772 47.483 C 238.663 46.941,238.053 46.174,237.726 46.170 C 237.621 46.168,237.494 46.058,237.443 45.926 C 237.392 45.793,237.084 45.635,236.759 45.574 C 236.433 45.513,236.167 45.404,236.167 45.331 C 236.167 45.259,235.792 45.110,235.333 45.000 C 234.875 44.890,234.500 44.741,234.500 44.669 C 234.500 44.596,234.237 44.488,233.917 44.428 C 233.596 44.367,233.333 44.256,233.333 44.180 C 233.333 44.104,233.120 43.999,232.859 43.947 C 231.908 43.757,231.121 42.717,231.201 41.757 C 231.353 39.936,232.611 39.577,237.125 40.066 L 238.500 40.215 238.500 39.607 C 238.500 38.784,238.061 38.392,236.896 38.177 C 235.715 37.959,232.291 37.971,231.500 38.197 M278.708 38.186 C 278.410 38.272,278.167 38.397,278.167 38.464 C 278.167 38.531,277.923 38.691,277.625 38.821 C 276.886 39.142,275.904 40.246,275.725 40.958 C 275.673 41.165,275.570 41.333,275.495 41.333 C 275.421 41.333,275.307 41.577,275.242 41.875 C 275.178 42.173,275.040 42.470,274.937 42.536 C 274.810 42.616,274.750 43.618,274.750 45.667 C 274.750 47.715,274.810 48.717,274.937 48.798 C 275.040 48.863,275.178 49.160,275.242 49.458 C 275.307 49.756,275.414 50.000,275.480 50.000 C 275.546 50.000,275.695 50.262,275.811 50.583 C 275.927 50.904,276.094 51.167,276.182 51.167 C 276.270 51.167,276.413 51.354,276.500 51.583 C 276.587 51.813,276.773 52.000,276.913 52.000 C 277.052 52.000,277.167 52.062,277.167 52.139 C 277.167 52.215,277.373 52.383,277.625 52.514 C 277.877 52.644,278.182 52.844,278.304 52.958 C 278.425 53.073,278.664 53.167,278.835 53.167 C 279.007 53.167,279.193 53.242,279.250 53.333 C 279.378 53.540,283.833 53.560,283.833 53.354 C 283.833 53.274,284.060 53.163,284.337 53.108 C 284.820 53.011,285.004 52.900,285.650 52.321 C 285.811 52.176,286.068 52.010,286.221 51.951 C 286.374 51.892,286.500 51.766,286.500 51.672 C 286.500 51.577,286.631 51.355,286.792 51.179 C 287.378 50.532,287.478 50.361,287.687 49.646 C 287.805 49.245,287.979 48.863,288.075 48.798 C 288.318 48.633,288.314 42.697,288.071 42.536 C 287.973 42.470,287.794 42.060,287.674 41.625 C 287.555 41.190,287.403 40.833,287.338 40.833 C 287.273 40.833,287.136 40.648,287.033 40.422 C 286.747 39.794,286.025 39.051,285.485 38.827 C 285.218 38.717,285.000 38.569,285.000 38.500 C 285.000 38.058,280.013 37.810,278.708 38.186 M304.708 38.186 C 304.410 38.272,304.167 38.397,304.167 38.464 C 304.167 38.531,303.923 38.691,303.625 38.821 C 302.886 39.142,301.904 40.246,301.725 40.958 C 301.673 41.165,301.570 41.333,301.495 41.333 C 301.421 41.333,301.307 41.577,301.242 41.875 C 301.178 42.173,301.040 42.470,300.937 42.536 C 300.810 42.616,300.750 43.618,300.750 45.667 C 300.750 47.715,300.810 48.717,300.937 48.798 C 301.040 48.863,301.178 49.160,301.242 49.458 C 301.307 49.756,301.414 50.000,301.480 50.000 C 301.546 50.000,301.695 50.262,301.811 50.583 C 301.927 50.904,302.094 51.167,302.182 51.167 C 302.270 51.167,302.413 51.354,302.500 51.583 C 302.587 51.813,302.773 52.000,302.913 52.000 C 303.052 52.000,303.167 52.062,303.167 52.139 C 303.167 52.215,303.373 52.383,303.625 52.514 C 303.877 52.644,304.182 52.844,304.304 52.958 C 304.425 53.073,304.664 53.167,304.835 53.167 C 305.007 53.167,305.193 53.242,305.250 53.333 C 305.378 53.540,309.833 53.560,309.833 53.354 C 309.833 53.274,310.060 53.163,310.337 53.108 C 310.820 53.011,311.004 52.900,311.650 52.321 C 311.811 52.176,312.068 52.010,312.221 51.951 C 312.374 51.892,312.500 51.766,312.500 51.672 C 312.500 51.577,312.631 51.355,312.792 51.179 C 313.378 50.532,313.478 50.361,313.687 49.646 C 313.805 49.245,313.979 48.863,314.075 48.798 C 314.318 48.633,314.314 42.697,314.071 42.536 C 313.973 42.470,313.794 42.060,313.674 41.625 C 313.555 41.190,313.403 40.833,313.338 40.833 C 313.273 40.833,313.136 40.648,313.033 40.422 C 312.747 39.794,312.025 39.051,311.485 38.827 C 311.218 38.717,311.000 38.569,311.000 38.500 C 311.000 38.058,306.013 37.810,304.708 38.186 M345.917 38.208 C 345.550 38.303,345.212 38.427,345.167 38.483 C 345.121 38.538,344.858 38.696,344.583 38.833 C 344.308 38.971,344.023 39.177,343.950 39.291 C 343.750 39.604,343.500 39.543,343.500 39.180 C 343.500 38.464,343.331 38.333,342.399 38.333 L 341.500 38.333 341.500 48.583 L 341.500 58.833 342.500 58.833 L 343.500 58.833 343.500 55.333 C 343.500 51.893,343.552 51.576,344.036 52.060 C 344.160 52.184,344.559 52.390,344.923 52.517 C 345.286 52.644,345.637 52.824,345.702 52.916 C 345.872 53.155,350.644 53.138,350.798 52.897 C 350.863 52.795,351.104 52.653,351.333 52.582 C 351.563 52.510,352.087 52.089,352.500 51.645 C 353.586 50.476,353.601 50.455,353.819 49.793 C 353.929 49.460,354.085 49.165,354.165 49.136 C 354.685 48.949,354.708 42.182,354.190 41.843 C 354.112 41.792,353.957 41.469,353.845 41.125 C 353.733 40.781,353.572 40.500,353.487 40.500 C 353.403 40.500,353.333 40.404,353.333 40.287 C 353.333 40.170,353.202 39.952,353.042 39.803 C 352.881 39.654,352.573 39.338,352.358 39.100 C 352.142 38.862,351.860 38.667,351.733 38.667 C 351.605 38.667,351.500 38.601,351.500 38.520 C 351.500 38.054,347.392 37.824,345.917 38.208 M369.042 38.199 C 368.560 38.287,368.167 38.416,368.167 38.486 C 368.167 38.556,367.867 38.712,367.500 38.833 C 367.133 38.954,366.833 39.108,366.833 39.174 C 366.833 39.240,366.683 39.334,366.500 39.382 C 366.214 39.456,366.167 39.387,366.167 38.893 L 366.167 38.317 365.125 38.367 L 364.083 38.417 364.083 45.667 L 364.083 52.917 365.125 52.966 L 366.167 53.016 366.167 47.291 L 366.167 41.567 366.750 41.356 C 367.071 41.240,367.333 41.078,367.333 40.996 C 367.333 40.913,367.652 40.761,368.042 40.656 C 368.431 40.551,368.802 40.381,368.867 40.278 C 369.346 39.508,373.833 40.250,373.833 41.100 C 373.833 41.213,373.927 41.337,374.042 41.375 C 374.202 41.428,374.262 42.786,374.303 47.222 L 374.357 53.000 375.345 53.000 L 376.333 53.000 376.329 47.042 C 376.325 40.350,376.275 39.942,375.357 39.024 C 374.343 38.009,371.860 37.685,369.042 38.199 M383.504 38.170 C 383.186 38.245,382.899 38.387,382.866 38.487 C 382.833 38.586,382.708 38.667,382.589 38.667 C 382.310 38.667,381.000 39.973,381.000 40.252 C 381.000 40.369,380.895 40.505,380.766 40.554 C 380.637 40.604,380.477 40.893,380.411 41.197 C 380.345 41.501,380.230 41.789,380.155 41.837 C 379.551 42.225,379.572 49.167,380.178 49.167 C 380.249 49.167,380.396 49.434,380.504 49.761 C 380.706 50.375,382.226 52.000,382.597 52.000 C 382.712 52.000,382.832 52.079,382.864 52.175 C 383.079 52.822,389.000 52.810,389.000 52.163 C 389.000 52.091,389.225 51.954,389.500 51.858 C 389.775 51.762,390.000 51.605,390.000 51.509 C 390.000 51.412,390.102 51.333,390.228 51.333 C 390.477 51.333,390.412 53.668,390.159 53.834 C 390.088 53.880,389.977 54.201,389.913 54.547 C 389.757 55.374,388.600 56.577,387.727 56.819 C 386.468 57.169,381.833 56.891,381.833 56.466 C 381.833 56.393,381.571 56.333,381.250 56.333 L 380.667 56.333 380.667 57.179 C 380.667 58.214,380.845 58.408,382.057 58.690 C 382.576 58.810,383.000 58.967,383.000 59.038 C 383.000 59.109,384.125 59.167,385.500 59.167 C 386.895 59.167,388.000 59.099,388.000 59.015 C 388.000 58.931,388.291 58.813,388.647 58.753 C 389.002 58.693,389.458 58.518,389.658 58.364 C 390.564 57.668,391.445 56.701,391.662 56.167 C 391.792 55.846,391.966 55.537,392.050 55.479 C 392.133 55.422,392.242 54.878,392.290 54.271 C 392.339 53.664,392.444 53.167,392.523 53.167 C 392.794 53.167,392.701 38.844,392.429 38.571 C 391.898 38.041,390.500 38.261,390.497 38.875 C 390.496 39.173,390.440 39.336,390.372 39.237 C 390.305 39.138,390.006 38.951,389.708 38.821 C 389.410 38.691,389.167 38.538,389.167 38.479 C 389.167 38.071,384.911 37.839,383.504 38.170 M165.034 44.756 C 165.068 49.120,165.141 51.217,165.263 51.298 C 165.362 51.363,165.549 51.660,165.679 51.958 C 165.809 52.256,165.997 52.500,166.099 52.500 C 166.200 52.500,166.455 52.650,166.667 52.833 C 166.878 53.017,167.152 53.167,167.276 53.167 C 167.399 53.167,167.500 53.242,167.500 53.333 C 167.500 53.436,168.306 53.500,169.583 53.500 C 170.729 53.500,171.667 53.432,171.667 53.348 C 171.667 53.264,171.967 53.145,172.333 53.083 C 172.700 53.021,173.000 52.914,173.000 52.845 C 173.000 52.776,173.296 52.622,173.658 52.503 C 174.020 52.383,174.355 52.184,174.403 52.060 C 174.532 51.721,174.833 51.787,174.833 52.153 C 174.833 52.870,175.003 53.000,175.934 53.000 L 176.833 53.000 176.833 45.667 L 176.833 38.333 175.833 38.333 L 174.833 38.333 174.833 44.052 L 174.833 49.771 174.250 50.000 C 173.929 50.126,173.667 50.284,173.667 50.351 C 173.667 50.418,173.441 50.523,173.165 50.584 C 172.889 50.644,172.540 50.817,172.390 50.967 C 172.170 51.187,171.755 51.242,170.266 51.245 C 168.187 51.251,167.620 50.976,167.396 49.856 C 167.339 49.569,167.226 49.333,167.146 49.333 C 167.065 49.333,167.000 46.865,167.000 43.833 L 167.000 38.333 165.993 38.333 L 164.985 38.333 165.034 44.756 M191.500 45.667 L 191.500 53.000 192.500 53.000 L 193.500 53.000 193.500 45.667 L 193.500 38.333 192.500 38.333 L 191.500 38.333 191.500 45.667 M265.833 45.667 L 265.833 53.000 266.833 53.000 L 267.833 53.000 267.833 47.679 L 267.833 42.359 268.336 41.857 C 268.612 41.580,268.987 41.307,269.169 41.249 C 269.351 41.191,269.500 41.078,269.500 40.997 C 269.500 40.739,270.706 40.502,272.024 40.501 C 273.471 40.500,273.500 40.473,273.500 39.153 L 273.500 38.333 271.917 38.333 C 271.046 38.333,270.333 38.400,270.333 38.481 C 270.333 38.563,270.073 38.678,269.755 38.738 C 269.428 38.799,268.902 39.106,268.546 39.443 L 267.917 40.038 267.871 39.561 C 267.756 38.357,267.734 38.333,266.747 38.333 L 265.833 38.333 265.833 45.667 M325.952 38.551 C 325.837 38.850,326.177 40.500,326.353 40.500 C 326.431 40.500,326.580 40.837,326.684 41.250 C 326.788 41.662,326.936 42.000,327.012 42.000 C 327.089 42.000,327.201 42.262,327.261 42.583 C 327.321 42.904,327.430 43.167,327.502 43.167 C 327.574 43.167,327.723 43.542,327.833 44.000 C 327.943 44.458,328.084 44.833,328.147 44.833 C 328.209 44.833,328.364 45.190,328.490 45.625 C 328.616 46.060,328.820 46.565,328.943 46.745 C 329.066 46.926,329.167 47.207,329.167 47.370 C 329.167 47.533,329.234 47.667,329.317 47.667 C 329.399 47.667,329.557 48.042,329.667 48.500 C 329.777 48.958,329.922 49.333,329.990 49.333 C 330.058 49.333,330.212 49.746,330.333 50.250 C 330.454 50.754,330.607 51.167,330.673 51.167 C 330.740 51.167,330.879 51.504,330.983 51.917 C 331.086 52.329,331.245 52.667,331.336 52.667 C 331.426 52.667,331.500 52.854,331.500 53.083 C 331.500 53.313,331.426 53.500,331.336 53.500 C 331.245 53.500,331.086 53.837,330.983 54.250 C 330.879 54.663,330.737 55.000,330.668 55.000 C 330.598 55.000,330.494 55.237,330.436 55.527 C 330.212 56.649,329.198 57.333,327.763 57.333 L 326.500 57.333 326.500 57.986 C 326.500 59.157,326.516 59.167,328.358 59.167 C 330.102 59.167,330.116 59.162,331.055 58.221 C 331.866 57.408,332.178 56.959,332.281 56.458 C 332.333 56.206,332.433 56.000,332.504 56.000 C 332.575 56.000,332.723 55.625,332.833 55.167 C 332.943 54.708,333.092 54.333,333.165 54.333 C 333.237 54.333,333.345 54.071,333.406 53.750 C 333.466 53.429,333.575 53.167,333.648 53.167 C 333.720 53.167,333.879 52.754,334.000 52.250 C 334.121 51.746,334.274 51.333,334.340 51.333 C 334.406 51.333,334.545 50.996,334.649 50.583 C 334.753 50.171,334.905 49.833,334.986 49.833 C 335.067 49.833,335.223 49.458,335.333 49.000 C 335.443 48.542,335.592 48.167,335.665 48.167 C 335.737 48.167,335.845 47.904,335.906 47.583 C 335.966 47.262,336.073 47.000,336.143 47.000 C 336.213 47.000,336.371 46.608,336.493 46.130 C 336.616 45.651,336.818 45.159,336.941 45.035 C 337.065 44.911,337.167 44.633,337.167 44.417 C 337.167 44.201,337.270 43.920,337.396 43.794 C 337.523 43.668,337.679 43.325,337.743 43.032 C 337.807 42.740,337.917 42.500,337.987 42.500 C 338.056 42.500,338.212 42.087,338.333 41.583 C 338.454 41.079,338.607 40.667,338.673 40.667 C 338.823 40.667,339.167 39.337,339.167 38.760 C 339.167 38.350,339.128 38.333,338.174 38.333 L 337.182 38.333 337.072 38.917 C 337.012 39.237,336.908 39.500,336.841 39.500 C 336.775 39.500,336.621 39.912,336.500 40.417 C 336.379 40.921,336.220 41.333,336.148 41.333 C 336.075 41.333,335.966 41.596,335.906 41.917 C 335.845 42.237,335.735 42.500,335.660 42.500 C 335.585 42.500,335.432 42.913,335.319 43.417 C 335.206 43.921,335.059 44.333,334.993 44.333 C 334.927 44.333,334.788 44.671,334.684 45.083 C 334.580 45.496,334.421 45.833,334.331 45.833 C 334.241 45.833,334.167 45.947,334.167 46.086 C 334.167 46.470,333.767 47.667,333.639 47.667 C 333.577 47.667,333.474 47.910,333.409 48.208 C 333.344 48.506,333.240 48.788,333.177 48.833 C 333.114 48.879,332.991 49.173,332.904 49.487 C 332.639 50.437,332.000 49.799,332.000 48.586 C 332.000 48.447,331.925 48.333,331.833 48.333 C 331.742 48.333,331.667 48.189,331.667 48.012 C 331.667 47.835,331.565 47.589,331.441 47.465 C 331.318 47.341,331.116 46.849,330.993 46.370 C 330.871 45.892,330.721 45.500,330.662 45.500 C 330.602 45.500,330.454 45.087,330.333 44.583 C 330.212 44.079,330.056 43.667,329.985 43.667 C 329.915 43.667,329.765 43.254,329.652 42.750 C 329.539 42.246,329.387 41.833,329.314 41.833 C 329.241 41.833,329.133 41.571,329.072 41.250 C 329.012 40.929,328.902 40.667,328.827 40.667 C 328.752 40.667,328.598 40.254,328.485 39.750 C 328.373 39.246,328.217 38.833,328.140 38.833 C 328.063 38.833,328.000 38.721,328.000 38.583 C 328.000 38.250,326.079 38.219,325.952 38.551 M358.000 45.667 L 358.000 53.000 359.000 53.000 L 360.000 53.000 360.000 45.667 L 360.000 38.333 359.000 38.333 L 358.000 38.333 358.000 45.667 M149.955 40.282 C 149.992 40.392,150.275 40.565,150.584 40.667 C 150.949 40.787,151.224 41.026,151.364 41.343 C 151.484 41.613,151.626 41.833,151.681 41.833 C 151.735 41.833,151.883 42.152,152.008 42.542 C 152.133 42.931,152.307 43.299,152.394 43.359 C 152.601 43.502,152.600 47.832,152.393 47.974 C 152.305 48.034,152.141 48.402,152.027 48.792 C 151.913 49.181,151.766 49.500,151.701 49.500 C 151.635 49.500,151.484 49.721,151.364 49.990 C 151.224 50.307,150.949 50.546,150.584 50.666 C 150.275 50.768,149.992 50.942,149.955 51.051 C 149.866 51.319,146.040 51.331,145.869 51.064 C 145.804 50.962,145.590 50.828,145.394 50.767 C 144.862 50.601,144.271 49.991,144.005 49.333 C 143.875 49.012,143.707 48.707,143.630 48.654 C 143.155 48.326,143.177 42.858,143.654 42.699 C 143.743 42.669,143.904 42.375,144.013 42.044 C 144.238 41.361,144.872 40.705,145.445 40.561 C 145.659 40.508,145.833 40.402,145.833 40.327 C 145.833 39.962,149.834 39.918,149.955 40.282 M205.733 40.375 C 205.893 40.535,206.114 40.667,206.225 40.667 C 206.610 40.667,207.833 42.501,207.833 43.078 C 207.833 43.203,207.920 43.334,208.026 43.370 C 208.277 43.453,208.296 47.815,208.047 47.974 C 207.952 48.034,207.822 48.327,207.758 48.625 C 207.693 48.923,207.576 49.167,207.498 49.167 C 207.420 49.167,207.303 49.335,207.237 49.542 C 207.094 49.995,206.492 50.660,206.220 50.664 C 206.112 50.665,205.893 50.798,205.732 50.958 C 205.383 51.308,201.750 51.399,201.536 51.064 C 201.470 50.962,201.229 50.820,201.000 50.749 C 200.468 50.585,199.956 50.035,199.665 49.316 C 199.539 49.005,199.367 48.703,199.284 48.646 C 199.200 48.589,199.092 48.045,199.043 47.438 C 198.994 46.830,198.890 46.333,198.811 46.333 C 198.731 46.333,198.667 46.033,198.667 45.667 C 198.667 45.300,198.731 45.000,198.811 45.000 C 198.890 45.000,198.995 44.496,199.044 43.880 C 199.094 43.265,199.212 42.735,199.308 42.703 C 199.403 42.671,199.568 42.384,199.673 42.064 C 199.917 41.324,200.475 40.721,201.050 40.577 C 201.298 40.515,201.500 40.402,201.500 40.327 C 201.500 39.891,205.291 39.933,205.733 40.375 M283.738 40.402 C 284.804 40.968,285.833 42.284,285.833 43.078 C 285.833 43.203,285.920 43.334,286.026 43.370 C 286.277 43.453,286.296 47.815,286.047 47.974 C 285.952 48.034,285.822 48.327,285.758 48.625 C 285.693 48.923,285.576 49.167,285.498 49.167 C 285.420 49.167,285.304 49.335,285.241 49.542 C 285.088 50.039,284.631 50.457,283.697 50.953 C 282.857 51.400,279.802 51.482,279.535 51.064 C 279.470 50.962,279.229 50.820,279.000 50.749 C 278.468 50.585,277.956 50.035,277.665 49.316 C 277.539 49.005,277.367 48.703,277.284 48.646 C 277.200 48.589,277.092 48.045,277.043 47.438 C 276.994 46.830,276.890 46.333,276.811 46.333 C 276.731 46.333,276.667 46.033,276.667 45.667 C 276.667 45.300,276.731 45.000,276.811 45.000 C 276.890 45.000,276.995 44.496,277.044 43.880 C 277.094 43.265,277.212 42.735,277.308 42.703 C 277.403 42.671,277.568 42.384,277.673 42.064 C 277.917 41.324,278.475 40.721,279.050 40.577 C 279.298 40.515,279.500 40.402,279.500 40.327 C 279.500 39.835,282.781 39.893,283.738 40.402 M309.738 40.402 C 310.804 40.968,311.833 42.284,311.833 43.078 C 311.833 43.203,311.920 43.334,312.026 43.370 C 312.277 43.453,312.296 47.815,312.047 47.974 C 311.952 48.034,311.822 48.327,311.758 48.625 C 311.693 48.923,311.576 49.167,311.498 49.167 C 311.420 49.167,311.304 49.335,311.241 49.542 C 311.088 50.039,310.631 50.457,309.697 50.953 C 308.857 51.400,305.802 51.482,305.535 51.064 C 305.470 50.962,305.229 50.820,305.000 50.749 C 304.468 50.585,303.956 50.035,303.665 49.316 C 303.539 49.005,303.367 48.703,303.284 48.646 C 303.200 48.589,303.092 48.045,303.043 47.438 C 302.994 46.830,302.890 46.333,302.811 46.333 C 302.731 46.333,302.667 46.033,302.667 45.667 C 302.667 45.300,302.731 45.000,302.811 45.000 C 302.890 45.000,302.995 44.496,303.044 43.880 C 303.094 43.265,303.212 42.735,303.308 42.703 C 303.403 42.671,303.568 42.384,303.673 42.064 C 303.917 41.324,304.475 40.721,305.050 40.577 C 305.298 40.515,305.500 40.402,305.500 40.327 C 305.500 39.835,308.781 39.893,309.738 40.402 M350.181 40.365 C 350.262 40.510,350.504 40.673,350.717 40.727 C 350.931 40.780,351.213 41.033,351.344 41.287 C 351.475 41.542,351.622 41.787,351.670 41.833 C 351.869 42.024,352.167 42.878,352.167 43.258 C 352.167 43.483,352.242 43.667,352.333 43.667 C 352.434 43.667,352.500 44.389,352.500 45.500 C 352.500 46.508,352.440 47.333,352.367 47.333 C 352.293 47.333,352.142 47.776,352.030 48.317 C 351.914 48.881,351.722 49.340,351.580 49.395 C 351.444 49.447,351.333 49.588,351.333 49.708 C 351.333 50.013,350.812 50.426,350.102 50.683 C 349.771 50.802,349.500 50.960,349.500 51.033 C 349.500 51.107,348.825 51.167,348.000 51.167 C 347.159 51.167,346.500 51.097,346.500 51.008 C 346.500 50.920,346.236 50.799,345.914 50.739 C 345.592 50.678,345.273 50.543,345.206 50.439 C 345.139 50.335,344.861 50.137,344.588 50.000 C 343.474 49.438,343.500 49.547,343.500 45.374 L 343.500 41.581 344.042 41.343 C 344.340 41.211,344.686 41.002,344.812 40.877 C 344.937 40.752,345.256 40.607,345.520 40.554 C 345.784 40.502,346.000 40.398,346.000 40.324 C 346.000 39.917,349.952 39.956,350.181 40.365 M388.412 40.389 C 388.565 40.542,388.800 40.667,388.934 40.667 C 389.068 40.667,389.220 40.779,389.273 40.917 C 389.326 41.054,389.459 41.167,389.570 41.167 C 390.397 41.167,390.500 41.644,390.500 45.475 L 390.500 49.104 389.924 49.331 C 389.607 49.455,389.309 49.656,389.262 49.778 C 389.215 49.900,389.068 50.000,388.934 50.000 C 388.800 50.000,388.559 50.131,388.399 50.292 C 388.030 50.661,384.328 50.734,384.208 50.375 C 384.170 50.260,384.048 50.167,383.938 50.167 C 383.526 50.167,382.516 49.010,382.309 48.301 C 382.194 47.906,382.030 47.535,381.945 47.477 C 381.860 47.418,381.790 46.454,381.790 45.333 C 381.790 44.213,381.860 43.248,381.945 43.190 C 382.030 43.131,382.194 42.760,382.309 42.366 C 382.520 41.646,383.528 40.500,383.951 40.500 C 384.070 40.500,384.167 40.430,384.167 40.346 C 384.167 39.898,387.961 39.937,388.412 40.389 " stroke="none" fill="#fcfcfc" fill-rule="evenodd"></path><path id="path1" d="M96.458 41.445 C 95.931 41.484,95.500 41.577,95.500 41.651 C 95.500 41.725,94.999 41.832,94.387 41.889 C 93.775 41.946,93.231 42.060,93.179 42.143 C 93.126 42.225,92.746 42.348,92.333 42.415 C 91.921 42.482,91.201 42.716,90.734 42.935 C 90.267 43.154,89.804 43.333,89.706 43.333 C 89.608 43.333,89.503 43.390,89.472 43.458 C 89.442 43.527,89.059 43.763,88.622 43.983 C 87.183 44.707,86.637 45.453,86.913 46.321 C 87.033 46.701,89.578 46.856,89.928 46.505 C 90.017 46.416,91.345 46.292,92.878 46.229 C 94.412 46.166,95.667 46.052,95.667 45.974 C 95.667 45.897,96.079 45.833,96.583 45.833 C 97.087 45.833,97.500 45.897,97.500 45.975 C 97.500 46.053,98.150 46.163,98.945 46.219 C 99.739 46.275,100.433 46.384,100.486 46.462 C 100.540 46.539,100.825 46.700,101.121 46.820 C 101.849 47.114,102.181 50.746,101.517 51.156 C 101.428 51.211,101.303 51.649,101.239 52.128 C 101.176 52.608,101.069 53.000,101.001 53.000 C 100.934 53.000,100.783 53.450,100.667 54.000 C 100.550 54.550,100.402 55.000,100.337 55.000 C 100.273 55.000,100.127 55.413,100.015 55.917 C 99.902 56.421,99.752 56.833,99.681 56.833 C 99.611 56.833,99.454 57.246,99.333 57.750 C 99.212 58.254,99.059 58.667,98.992 58.667 C 98.925 58.667,98.821 58.929,98.761 59.250 C 98.701 59.571,98.580 59.833,98.492 59.833 C 98.241 59.833,98.307 61.164,98.571 61.429 C 98.865 61.722,99.593 61.738,99.937 61.458 C 101.153 60.470,103.167 58.241,103.167 57.883 C 103.167 57.764,103.244 57.667,103.337 57.667 C 103.431 57.667,103.580 57.479,103.667 57.250 C 103.754 57.021,103.890 56.833,103.969 56.833 C 104.048 56.833,104.212 56.533,104.333 56.167 C 104.454 55.800,104.604 55.500,104.667 55.500 C 104.729 55.500,104.870 55.200,104.980 54.833 C 105.090 54.467,105.246 54.167,105.327 54.167 C 105.407 54.167,105.524 53.937,105.586 53.655 C 105.648 53.374,105.801 52.945,105.928 52.702 C 106.054 52.458,106.206 51.938,106.264 51.546 C 106.323 51.154,106.425 50.833,106.490 50.833 C 106.633 50.833,107.000 48.928,107.000 48.189 C 107.000 47.902,107.075 47.667,107.167 47.667 C 107.270 47.667,107.333 46.806,107.333 45.417 C 107.333 44.028,107.270 43.167,107.167 43.167 C 107.075 43.167,107.000 43.057,107.000 42.923 C 107.000 42.784,106.715 42.595,106.333 42.480 C 105.967 42.370,105.667 42.222,105.667 42.150 C 105.667 42.079,105.310 41.974,104.875 41.918 C 104.440 41.862,103.940 41.737,103.765 41.640 C 103.435 41.458,98.166 41.317,96.458 41.445 M0.375 43.612 C -0.496 44.220,0.598 47.000,1.708 47.000 C 1.783 47.000,2.085 47.262,2.379 47.583 C 2.673 47.904,3.005 48.167,3.116 48.167 C 3.226 48.167,3.377 48.260,3.450 48.375 C 3.654 48.694,5.287 50.000,5.482 50.000 C 5.577 50.000,5.735 50.150,5.833 50.333 C 5.931 50.517,6.124 50.667,6.261 50.667 C 6.398 50.667,6.554 50.779,6.606 50.917 C 6.659 51.054,6.795 51.167,6.909 51.167 C 7.022 51.167,7.251 51.317,7.417 51.500 C 7.583 51.683,7.815 51.833,7.934 51.833 C 8.053 51.833,8.210 51.927,8.283 52.042 C 8.357 52.157,8.642 52.363,8.917 52.500 C 9.192 52.637,9.477 52.843,9.550 52.958 C 9.623 53.073,9.792 53.167,9.925 53.167 C 10.058 53.167,10.167 53.238,10.167 53.324 C 10.167 53.482,10.610 53.762,11.625 54.246 C 11.923 54.388,12.167 54.573,12.167 54.656 C 12.167 54.739,12.397 54.857,12.678 54.919 C 12.959 54.981,13.227 55.130,13.273 55.251 C 13.320 55.371,13.558 55.520,13.802 55.582 C 14.047 55.643,14.285 55.752,14.332 55.825 C 14.461 56.025,16.349 57.000,16.607 57.000 C 16.731 57.000,16.833 57.069,16.833 57.154 C 16.833 57.238,17.115 57.399,17.458 57.511 C 17.802 57.623,18.121 57.761,18.167 57.818 C 18.334 58.024,20.096 58.833,20.377 58.833 C 20.536 58.833,20.667 58.896,20.667 58.973 C 20.667 59.050,20.967 59.212,21.333 59.333 C 21.700 59.454,22.000 59.616,22.000 59.693 C 22.000 59.770,22.117 59.833,22.259 59.833 C 22.402 59.833,22.852 59.985,23.259 60.171 C 23.667 60.356,24.225 60.553,24.500 60.608 C 24.775 60.663,25.000 60.762,25.000 60.828 C 25.000 60.893,25.412 61.046,25.917 61.167 C 26.421 61.288,26.833 61.439,26.833 61.504 C 26.833 61.568,27.283 61.717,27.833 61.833 C 28.383 61.950,28.833 62.108,28.833 62.184 C 28.833 62.260,29.208 62.372,29.667 62.432 C 30.125 62.493,30.500 62.599,30.500 62.666 C 30.500 62.734,30.969 62.882,31.542 62.994 C 32.115 63.106,32.658 63.259,32.750 63.333 C 32.842 63.407,33.517 63.565,34.250 63.684 C 34.983 63.804,35.621 63.949,35.667 64.006 C 35.771 64.137,37.970 64.500,38.657 64.500 C 38.937 64.500,39.167 64.570,39.167 64.655 C 39.167 64.741,39.767 64.863,40.500 64.927 C 41.233 64.991,41.833 65.098,41.833 65.164 C 41.833 65.906,63.634 65.906,64.583 65.164 C 64.675 65.092,65.331 64.979,66.042 64.914 C 66.752 64.848,67.333 64.742,67.333 64.678 C 67.333 64.615,68.121 64.467,69.083 64.349 C 70.046 64.231,70.833 64.084,70.833 64.021 C 70.833 63.958,71.449 63.810,72.202 63.692 C 72.954 63.573,73.648 63.426,73.743 63.364 C 73.839 63.302,74.442 63.116,75.083 62.950 C 75.725 62.784,76.569 62.565,76.958 62.463 C 77.348 62.361,77.667 62.225,77.667 62.161 C 77.667 62.098,78.117 61.950,78.667 61.833 C 79.217 61.717,79.667 61.568,79.667 61.504 C 79.667 61.439,80.098 61.290,80.625 61.173 C 81.152 61.055,81.731 60.856,81.912 60.729 C 82.093 60.603,82.355 60.497,82.495 60.494 C 82.635 60.491,83.050 60.344,83.417 60.167 C 83.783 59.990,84.177 59.842,84.292 59.839 C 84.406 59.836,84.500 59.758,84.500 59.667 C 84.500 59.575,84.630 59.500,84.789 59.500 C 84.948 59.500,85.455 59.322,85.914 59.105 C 87.832 58.200,88.296 58.000,88.477 58.000 C 88.581 58.000,88.667 57.928,88.667 57.840 C 88.667 57.752,88.967 57.590,89.333 57.480 C 89.700 57.370,90.000 57.222,90.000 57.151 C 90.000 57.080,90.263 56.927,90.583 56.811 C 90.904 56.695,91.167 56.547,91.167 56.483 C 91.167 56.419,91.392 56.288,91.667 56.192 C 91.942 56.096,92.167 55.944,92.167 55.855 C 92.167 55.766,92.385 55.645,92.653 55.586 C 92.920 55.528,93.178 55.379,93.225 55.256 C 93.272 55.132,93.541 54.981,93.822 54.919 C 94.103 54.857,94.333 54.736,94.333 54.649 C 94.333 54.563,94.521 54.420,94.750 54.333 C 94.979 54.246,95.167 54.116,95.167 54.045 C 95.167 53.973,95.373 53.823,95.625 53.711 C 95.877 53.598,96.271 53.333,96.500 53.120 C 96.729 52.907,97.055 52.680,97.224 52.616 C 97.393 52.551,97.571 52.349,97.619 52.166 C 97.666 51.983,97.772 51.833,97.853 51.833 C 98.264 51.833,97.990 50.372,97.479 49.837 C 96.941 49.275,94.836 49.126,94.523 49.629 C 94.464 49.722,94.098 49.884,93.708 49.989 C 93.319 50.094,93.000 50.243,93.000 50.321 C 93.000 50.399,92.756 50.509,92.458 50.566 C 92.160 50.622,91.715 50.773,91.470 50.902 C 91.224 51.030,90.792 51.186,90.511 51.248 C 90.230 51.309,90.000 51.419,90.000 51.490 C 90.000 51.562,89.550 51.717,89.000 51.833 C 88.450 51.950,88.000 52.097,88.000 52.159 C 88.000 52.221,87.513 52.369,86.917 52.488 C 86.321 52.606,85.833 52.765,85.833 52.841 C 85.833 52.917,85.496 53.030,85.083 53.092 C 84.671 53.154,84.333 53.264,84.333 53.337 C 84.333 53.410,83.808 53.564,83.167 53.678 C 82.525 53.793,82.000 53.936,82.000 53.997 C 82.000 54.057,81.400 54.204,80.667 54.323 C 79.933 54.442,79.333 54.594,79.333 54.660 C 79.333 54.726,78.696 54.879,77.917 55.000 C 77.138 55.121,76.500 55.275,76.500 55.341 C 76.500 55.407,75.994 55.515,75.375 55.581 C 74.756 55.647,74.211 55.764,74.162 55.842 C 74.114 55.919,73.233 56.073,72.204 56.185 C 71.175 56.296,70.333 56.441,70.333 56.506 C 70.333 56.571,69.227 56.721,67.875 56.839 C 66.523 56.958,65.379 57.107,65.333 57.171 C 64.916 57.752,44.074 57.754,43.667 57.173 C 43.621 57.108,42.458 56.959,41.083 56.843 C 39.708 56.727,38.508 56.575,38.417 56.505 C 38.325 56.435,37.406 56.283,36.375 56.167 C 35.344 56.051,34.500 55.899,34.500 55.830 C 34.500 55.762,34.013 55.653,33.418 55.590 C 32.824 55.526,32.299 55.413,32.253 55.338 C 32.206 55.263,31.531 55.111,30.751 55.000 C 29.971 54.889,29.333 54.746,29.333 54.682 C 29.333 54.618,28.771 54.470,28.083 54.355 C 27.396 54.239,26.833 54.089,26.833 54.022 C 26.833 53.954,26.271 53.804,25.583 53.688 C 24.896 53.573,24.333 53.411,24.333 53.328 C 24.333 53.246,23.958 53.128,23.500 53.068 C 23.042 53.007,22.667 52.902,22.667 52.835 C 22.667 52.767,22.217 52.617,21.667 52.500 C 21.117 52.383,20.667 52.235,20.667 52.170 C 20.667 52.106,20.254 51.961,19.750 51.848 C 19.246 51.735,18.833 51.581,18.833 51.507 C 18.833 51.432,18.574 51.322,18.257 51.262 C 17.940 51.203,17.471 51.045,17.215 50.911 C 16.959 50.778,16.506 50.622,16.208 50.566 C 15.910 50.509,15.667 50.404,15.667 50.331 C 15.667 50.259,15.292 50.110,14.833 50.000 C 14.375 49.890,14.000 49.733,14.000 49.650 C 14.000 49.568,13.874 49.500,13.719 49.500 C 13.447 49.500,12.824 49.241,11.081 48.402 C 10.621 48.181,10.153 48.000,10.039 48.000 C 9.926 48.000,9.833 47.941,9.833 47.870 C 9.833 47.798,9.496 47.640,9.083 47.518 C 8.671 47.396,8.333 47.242,8.333 47.175 C 8.333 47.108,8.033 46.963,7.667 46.853 C 7.300 46.743,7.000 46.587,7.000 46.507 C 7.000 46.426,6.775 46.310,6.500 46.250 C 6.225 46.190,6.000 46.077,6.000 46.000 C 6.000 45.922,5.737 45.773,5.417 45.667 C 5.096 45.561,4.833 45.411,4.833 45.333 C 4.833 45.256,4.552 45.101,4.208 44.989 C 3.865 44.877,3.546 44.740,3.500 44.684 C 2.846 43.893,0.920 43.232,0.375 43.612 M239.833 52.750 C 239.833 52.887,239.908 53.000,240.000 53.000 C 240.092 53.000,240.167 52.887,240.167 52.750 C 240.167 52.612,240.092 52.500,240.000 52.500 C 239.908 52.500,239.833 52.612,239.833 52.750 " stroke="none" fill="#fb942c" fill-rule="evenodd"></path><path id="path2" d="" stroke="none" fill="#f8100c8" fill-rule="evenodd"></path><path id="path3" d="" stroke="none" fill="#f8100c8" fill-rule="evenodd"></path><path id="path4" d="" stroke="none" fill="#f8100c8" fill-rule="evenodd"></path></g></svg>