<!--
  - /*
  -  * Copyright Amazon.com, Inc. or its affiliates. All Rights Reserved.
  -  * SPDX-License-Identifier: MIT-0
  -  */
  -->

<svg id="svg" version="1.1" xmlns="http://www.w3.org/2000/svg" xmlns:xlink="http://www.w3.org/1999/xlink" width="400" height="65.90649942987457" viewBox="0, 0, 400,65.90649942987457"><g id="svgg"><path id="path0" d="M97.317 41.403 C 97.262 41.459,96.831 41.514,96.359 41.524 C 95.886 41.535,95.500 41.598,95.500 41.664 C 95.500 41.731,94.999 41.832,94.387 41.889 C 93.775 41.946,93.231 42.060,93.179 42.143 C 93.126 42.225,92.746 42.348,92.333 42.415 C 91.921 42.482,91.171 42.733,90.667 42.972 C 90.162 43.212,89.694 43.391,89.625 43.370 C 89.556 43.350,89.500 43.408,89.500 43.500 C 89.500 43.592,89.393 43.667,89.262 43.667 C 89.131 43.667,88.906 43.785,88.762 43.929 C 88.618 44.073,88.500 44.143,88.500 44.085 C 88.500 43.754,87.003 45.106,86.913 45.519 C 86.695 46.511,86.885 46.667,88.311 46.667 C 89.020 46.667,89.671 46.595,89.759 46.508 C 89.846 46.421,91.211 46.297,92.792 46.232 C 94.373 46.168,95.667 46.052,95.667 45.975 C 95.667 45.897,96.079 45.833,96.583 45.833 C 97.087 45.833,97.500 45.898,97.500 45.976 C 97.500 46.055,98.107 46.161,98.849 46.212 C 100.618 46.333,101.619 46.825,101.773 47.649 C 101.914 48.401,101.722 51.029,101.517 51.156 C 101.428 51.211,101.303 51.649,101.239 52.128 C 101.176 52.608,101.069 53.000,101.001 53.000 C 100.934 53.000,100.783 53.450,100.667 54.000 C 100.550 54.550,100.390 55.000,100.311 55.000 C 100.231 55.000,100.179 55.056,100.194 55.125 C 100.244 55.358,99.795 56.833,99.673 56.833 C 99.607 56.833,99.454 57.246,99.333 57.750 C 99.212 58.254,99.059 58.667,98.992 58.667 C 98.925 58.667,98.821 58.929,98.761 59.250 C 98.701 59.571,98.595 59.833,98.525 59.833 C 98.280 59.833,98.313 61.171,98.564 61.422 C 98.864 61.721,99.590 61.741,99.935 61.458 C 101.153 60.462,103.167 58.234,103.167 57.883 C 103.167 57.764,103.244 57.667,103.337 57.667 C 103.431 57.667,103.580 57.479,103.667 57.250 C 103.754 57.021,103.890 56.833,103.969 56.833 C 104.048 56.833,104.212 56.533,104.333 56.167 C 104.454 55.800,104.604 55.500,104.667 55.500 C 104.729 55.500,104.874 55.188,104.988 54.807 C 105.102 54.426,105.302 54.008,105.431 53.878 C 105.561 53.749,105.667 53.503,105.667 53.331 C 105.667 53.160,105.737 52.976,105.822 52.924 C 105.907 52.871,106.072 52.398,106.187 51.872 C 106.302 51.347,106.444 50.879,106.503 50.833 C 106.653 50.717,107.000 48.894,107.000 48.222 C 107.000 47.917,107.075 47.667,107.167 47.667 C 107.270 47.667,107.333 46.806,107.333 45.417 C 107.333 44.028,107.270 43.167,107.167 43.167 C 107.075 43.167,107.000 43.057,107.000 42.923 C 107.000 42.784,106.715 42.595,106.333 42.480 C 105.967 42.370,105.667 42.222,105.667 42.150 C 105.667 42.079,105.310 41.973,104.875 41.914 C 104.440 41.856,103.971 41.762,103.833 41.705 C 103.302 41.484,97.501 41.216,97.317 41.403 M0.458 43.595 C -0.522 44.127,0.532 47.000,1.708 47.000 C 1.783 47.000,2.085 47.262,2.379 47.583 C 2.673 47.904,2.978 48.167,3.057 48.167 C 3.135 48.167,3.669 48.579,4.243 49.083 C 4.817 49.587,5.370 50.000,5.471 50.000 C 5.572 50.000,5.731 50.141,5.823 50.314 C 5.916 50.487,6.162 50.673,6.371 50.727 C 6.579 50.781,6.990 51.052,7.283 51.329 C 7.576 51.607,7.891 51.833,7.983 51.833 C 8.075 51.833,8.210 51.927,8.283 52.042 C 8.357 52.157,8.642 52.363,8.917 52.500 C 9.406 52.745,9.518 52.823,10.113 53.333 C 10.475 53.644,10.925 53.916,11.625 54.248 C 11.923 54.389,12.167 54.573,12.167 54.656 C 12.167 54.739,12.397 54.857,12.678 54.919 C 12.959 54.981,13.228 55.132,13.275 55.256 C 13.322 55.379,13.580 55.528,13.847 55.586 C 14.115 55.645,14.333 55.748,14.333 55.815 C 14.333 55.954,16.380 57.000,16.652 57.000 C 16.752 57.000,16.833 57.063,16.833 57.140 C 16.833 57.217,17.133 57.379,17.500 57.500 C 17.867 57.621,18.167 57.777,18.167 57.847 C 18.167 57.916,18.392 58.023,18.667 58.083 C 18.942 58.144,19.167 58.262,19.167 58.347 C 19.167 58.432,19.504 58.592,19.917 58.702 C 20.329 58.812,20.667 58.950,20.667 59.008 C 20.667 59.066,20.967 59.212,21.333 59.333 C 21.700 59.454,22.000 59.616,22.000 59.693 C 22.000 59.770,22.117 59.833,22.259 59.833 C 22.402 59.833,22.852 59.985,23.259 60.171 C 23.667 60.356,24.225 60.553,24.500 60.608 C 24.775 60.663,25.000 60.760,25.000 60.823 C 25.000 60.886,25.394 61.036,25.875 61.157 C 26.356 61.277,26.826 61.436,26.919 61.509 C 27.012 61.582,27.460 61.736,27.914 61.850 C 28.369 61.965,28.930 62.157,29.162 62.278 C 29.394 62.399,29.790 62.498,30.042 62.499 C 30.294 62.500,30.500 62.565,30.500 62.645 C 30.500 62.725,30.969 62.882,31.542 62.994 C 32.115 63.106,32.658 63.257,32.750 63.330 C 32.842 63.402,33.479 63.552,34.167 63.664 C 34.854 63.775,35.567 63.931,35.750 64.010 C 36.199 64.204,37.930 64.500,38.614 64.500 C 38.918 64.500,39.167 64.570,39.167 64.655 C 39.167 64.741,39.767 64.863,40.500 64.927 C 41.233 64.991,41.833 65.092,41.833 65.152 C 41.833 65.213,41.965 65.266,42.125 65.272 C 42.285 65.278,43.467 65.386,44.750 65.512 C 49.397 65.971,63.876 65.716,64.583 65.164 C 64.675 65.092,65.331 64.979,66.042 64.914 C 66.752 64.848,67.333 64.742,67.333 64.678 C 67.333 64.615,68.121 64.467,69.083 64.349 C 70.046 64.231,70.833 64.084,70.833 64.021 C 70.833 63.958,71.451 63.810,72.206 63.691 C 72.962 63.572,73.655 63.416,73.748 63.344 C 73.841 63.272,74.179 63.165,74.500 63.105 C 75.286 62.959,77.376 62.321,77.583 62.163 C 77.675 62.094,78.181 61.942,78.708 61.825 C 79.235 61.709,79.667 61.562,79.667 61.500 C 79.667 61.438,80.098 61.290,80.625 61.173 C 81.152 61.055,81.731 60.856,81.912 60.729 C 82.093 60.603,82.355 60.497,82.495 60.494 C 82.635 60.491,83.050 60.344,83.417 60.167 C 83.783 59.990,84.177 59.842,84.292 59.839 C 84.406 59.836,84.500 59.758,84.500 59.667 C 84.500 59.575,84.630 59.500,84.789 59.500 C 84.948 59.500,85.455 59.321,85.914 59.102 C 86.374 58.883,87.144 58.528,87.625 58.313 C 88.106 58.097,88.500 57.874,88.500 57.816 C 88.500 57.758,88.838 57.615,89.250 57.500 C 89.663 57.385,90.000 57.234,90.000 57.165 C 90.000 57.097,90.244 56.941,90.542 56.819 C 90.840 56.697,91.182 56.500,91.304 56.382 C 91.425 56.264,91.631 56.167,91.762 56.167 C 91.893 56.167,92.000 56.093,92.000 56.002 C 92.000 55.912,92.253 55.732,92.563 55.603 C 92.873 55.473,93.173 55.290,93.232 55.196 C 93.290 55.103,93.561 54.976,93.835 54.916 C 94.109 54.856,94.333 54.736,94.333 54.649 C 94.333 54.563,94.521 54.420,94.750 54.333 C 94.979 54.246,95.167 54.116,95.167 54.045 C 95.167 53.973,95.373 53.823,95.625 53.711 C 95.877 53.598,96.271 53.333,96.500 53.120 C 96.729 52.907,97.055 52.680,97.224 52.616 C 97.393 52.551,97.571 52.349,97.619 52.166 C 97.666 51.983,97.772 51.833,97.853 51.833 C 98.065 51.833,98.034 50.757,97.807 50.258 C 97.700 50.024,97.521 49.833,97.408 49.833 C 97.295 49.833,97.155 49.711,97.098 49.561 C 96.979 49.250,94.723 49.308,94.523 49.627 C 94.464 49.720,94.098 49.892,93.708 50.008 C 93.319 50.124,93.000 50.274,93.000 50.341 C 93.000 50.408,92.756 50.509,92.458 50.566 C 92.160 50.622,91.715 50.773,91.470 50.902 C 91.224 51.030,90.792 51.186,90.511 51.248 C 90.230 51.309,90.000 51.419,90.000 51.490 C 90.000 51.562,89.550 51.717,89.000 51.833 C 88.450 51.950,88.000 52.102,88.000 52.171 C 88.000 52.239,87.664 52.346,87.254 52.407 C 86.844 52.469,86.466 52.587,86.415 52.669 C 86.364 52.751,86.213 52.777,86.078 52.725 C 85.943 52.673,85.833 52.709,85.833 52.805 C 85.833 52.901,85.496 53.030,85.083 53.092 C 84.671 53.154,84.333 53.264,84.333 53.337 C 84.333 53.410,83.808 53.564,83.167 53.678 C 82.525 53.793,82.000 53.936,82.000 53.997 C 82.000 54.057,81.400 54.204,80.667 54.323 C 79.933 54.442,79.333 54.594,79.333 54.660 C 79.333 54.726,78.696 54.879,77.917 55.000 C 77.138 55.121,76.500 55.275,76.500 55.341 C 76.500 55.407,75.994 55.515,75.375 55.581 C 74.756 55.647,74.211 55.764,74.162 55.842 C 74.114 55.919,73.233 56.073,72.204 56.185 C 71.175 56.296,70.333 56.441,70.333 56.506 C 70.333 56.571,69.227 56.721,67.875 56.839 C 66.523 56.958,65.379 57.108,65.333 57.172 C 64.913 57.758,44.069 57.762,43.667 57.176 C 43.621 57.109,42.458 56.959,41.083 56.843 C 39.708 56.727,38.508 56.575,38.417 56.505 C 38.325 56.435,37.406 56.283,36.375 56.167 C 35.344 56.051,34.500 55.900,34.500 55.833 C 34.500 55.765,34.035 55.657,33.466 55.593 C 32.898 55.528,32.304 55.407,32.146 55.322 C 31.988 55.238,31.290 55.084,30.596 54.981 C 29.901 54.877,29.333 54.735,29.333 54.665 C 29.333 54.595,29.240 54.544,29.125 54.554 C 28.757 54.583,26.833 54.127,26.833 54.011 C 26.833 53.949,26.271 53.804,25.583 53.688 C 24.896 53.573,24.333 53.415,24.333 53.337 C 24.333 53.259,24.015 53.146,23.625 53.086 C 23.235 53.025,22.692 52.875,22.417 52.752 C 22.142 52.628,21.635 52.476,21.292 52.412 C 20.948 52.348,20.667 52.230,20.667 52.148 C 20.667 52.067,20.610 52.012,20.542 52.027 C 20.300 52.079,18.833 51.626,18.833 51.499 C 18.833 51.428,18.552 51.318,18.208 51.254 C 17.865 51.189,17.491 51.060,17.377 50.966 C 17.264 50.873,17.054 50.841,16.910 50.896 C 16.767 50.951,16.690 50.930,16.740 50.850 C 16.790 50.769,16.569 50.654,16.249 50.594 C 15.929 50.534,15.667 50.421,15.667 50.342 C 15.667 50.264,15.292 50.110,14.833 50.000 C 14.375 49.890,14.000 49.733,14.000 49.650 C 14.000 49.568,13.874 49.500,13.719 49.500 C 13.453 49.500,13.081 49.347,11.052 48.402 C 10.577 48.181,10.108 48.000,10.010 48.000 C 9.913 48.000,9.833 47.941,9.833 47.870 C 9.833 47.798,9.496 47.640,9.083 47.518 C 8.671 47.396,8.333 47.230,8.333 47.148 C 8.333 47.067,8.237 47.000,8.119 47.000 C 8.002 47.000,7.421 46.739,6.828 46.421 C 6.235 46.102,5.544 45.757,5.292 45.655 C 5.040 45.552,4.833 45.395,4.833 45.307 C 4.833 45.219,4.758 45.193,4.667 45.250 C 4.575 45.307,4.500 45.280,4.500 45.190 C 4.500 45.100,4.275 44.977,4.000 44.917 C 3.725 44.856,3.500 44.747,3.500 44.673 C 3.500 44.599,3.369 44.491,3.208 44.432 C 3.048 44.373,2.507 44.102,2.007 43.829 C 0.960 43.258,1.054 43.272,0.458 43.595 " stroke="none" fill="#fb942c" fill-rule="evenodd"></path><path id="path1" d="M33.375 3.583 C 33.377 3.950,33.411 4.080,33.451 3.873 C 33.491 3.666,33.490 3.366,33.448 3.206 C 33.406 3.047,33.374 3.217,33.375 3.583 M100.892 6.500 C 100.892 7.279,100.920 7.598,100.955 7.208 C 100.990 6.819,100.990 6.181,100.955 5.792 C 100.920 5.402,100.892 5.721,100.892 6.500 M138.372 9.667 C 138.372 9.987,138.406 10.119,138.448 9.958 C 138.490 9.798,138.490 9.535,138.448 9.375 C 138.406 9.215,138.372 9.346,138.372 9.667 M161.500 23.000 C 161.500 23.367,161.558 23.667,161.629 23.667 C 161.701 23.667,161.730 23.367,161.695 23.000 C 161.660 22.633,161.602 22.333,161.566 22.333 C 161.530 22.333,161.500 22.633,161.500 23.000 M102.714 25.250 C 102.716 25.708,102.748 25.876,102.786 25.623 C 102.825 25.369,102.824 24.994,102.784 24.789 C 102.744 24.584,102.713 24.792,102.714 25.250 M251.739 38.917 C 251.739 41.300,251.763 42.252,251.791 41.032 C 251.820 39.812,251.820 37.862,251.791 36.698 C 251.763 35.535,251.739 36.533,251.739 38.917 M89.711 35.286 C 89.964 35.325,90.339 35.324,90.544 35.284 C 90.749 35.244,90.542 35.213,90.083 35.214 C 89.625 35.216,89.457 35.248,89.711 35.286 M292.539 36.833 C 292.539 37.154,292.573 37.285,292.615 37.125 C 292.657 36.965,292.657 36.702,292.615 36.542 C 292.573 36.381,292.539 36.512,292.539 36.833 M273.372 39.333 C 273.372 39.654,273.406 39.785,273.448 39.625 C 273.490 39.465,273.490 39.202,273.448 39.042 C 273.406 38.881,273.372 39.012,273.372 39.333 M359.743 45.667 C 359.743 49.471,359.765 51.027,359.791 49.125 C 359.818 47.223,359.818 44.110,359.791 42.208 C 359.765 40.306,359.743 41.862,359.743 45.667 M229.045 42.000 C 229.045 42.412,229.078 42.581,229.118 42.375 C 229.157 42.169,229.157 41.831,229.118 41.625 C 229.078 41.419,229.045 41.587,229.045 42.000 M196.889 45.667 C 196.889 46.354,196.919 46.635,196.955 46.292 C 196.991 45.948,196.991 45.385,196.955 45.042 C 196.919 44.698,196.889 44.979,196.889 45.667 M274.889 45.667 C 274.889 46.354,274.919 46.635,274.955 46.292 C 274.991 45.948,274.991 45.385,274.955 45.042 C 274.919 44.698,274.889 44.979,274.889 45.667 M300.667 45.667 C 300.667 46.333,300.738 46.833,300.833 46.833 C 300.929 46.833,301.000 46.333,301.000 45.667 C 301.000 45.000,300.929 44.500,300.833 44.500 C 300.738 44.500,300.667 45.000,300.667 45.667 M251.738 48.750 C 251.738 50.858,251.762 51.698,251.791 50.616 C 251.820 49.533,251.820 47.808,251.791 46.782 C 251.762 45.756,251.738 46.642,251.738 48.750 M130.628 51.621 C 130.928 51.658,131.378 51.657,131.628 51.619 C 131.878 51.581,131.633 51.551,131.083 51.552 C 130.533 51.553,130.328 51.584,130.628 51.621 M169.627 51.618 C 169.834 51.658,170.134 51.656,170.294 51.615 C 170.453 51.573,170.283 51.540,169.917 51.542 C 169.550 51.544,169.420 51.578,169.627 51.618 M185.627 51.618 C 185.834 51.658,186.134 51.656,186.294 51.615 C 186.453 51.573,186.283 51.540,185.917 51.542 C 185.550 51.544,185.420 51.578,185.627 51.618 M296.127 51.618 C 296.334 51.658,296.634 51.656,296.794 51.615 C 296.953 51.573,296.783 51.540,296.417 51.542 C 296.050 51.544,295.920 51.578,296.127 51.618 M322.127 51.618 C 322.334 51.658,322.634 51.656,322.794 51.615 C 322.953 51.573,322.783 51.540,322.417 51.542 C 322.050 51.544,321.920 51.578,322.127 51.618 " stroke="none" fill="#242424" fill-rule="evenodd"></path><path id="path2" d="M14.625 1.614 C 14.190 1.653,13.833 1.741,13.833 1.810 C 13.833 1.879,13.158 2.035,12.333 2.158 C 11.508 2.280,10.833 2.438,10.833 2.509 C 10.833 2.579,10.533 2.688,10.167 2.750 C 9.800 2.812,9.500 2.929,9.500 3.009 C 9.500 3.090,9.387 3.113,9.250 3.060 C 9.112 3.008,9.000 3.039,9.000 3.130 C 9.000 3.222,8.738 3.345,8.417 3.406 C 8.096 3.466,7.833 3.573,7.833 3.643 C 7.833 3.714,7.573 3.896,7.254 4.048 C 6.531 4.393,6.475 4.621,6.535 7.000 L 6.583 8.917 7.805 8.905 C 8.486 8.899,9.076 8.815,9.138 8.714 C 9.200 8.615,9.587 8.444,10.000 8.334 C 10.412 8.224,10.825 8.073,10.917 7.999 C 11.008 7.924,11.383 7.808,11.750 7.741 C 12.117 7.674,12.456 7.559,12.504 7.486 C 12.909 6.868,20.833 6.889,20.833 7.508 C 20.833 7.587,21.095 7.701,21.415 7.761 C 21.735 7.821,21.962 7.927,21.918 7.997 C 21.875 8.068,22.134 8.376,22.494 8.682 C 22.854 8.989,23.196 9.429,23.254 9.660 C 23.312 9.891,23.424 10.120,23.503 10.169 C 23.583 10.218,23.726 10.743,23.822 11.337 C 24.149 13.349,24.002 17.229,23.639 16.171 C 23.608 16.082,22.702 15.916,21.625 15.802 C 20.548 15.688,19.667 15.536,19.667 15.464 C 19.667 15.275,13.884 15.303,13.539 15.493 C 13.380 15.581,12.706 15.738,12.042 15.842 C 11.377 15.945,10.833 16.098,10.833 16.182 C 10.833 16.265,10.702 16.334,10.542 16.334 C 10.206 16.336,9.098 16.888,8.371 17.417 C 7.784 17.844,6.500 19.124,6.500 19.283 C 6.500 19.381,6.340 19.503,6.145 19.554 C 5.908 19.616,5.823 19.733,5.890 19.907 C 5.945 20.050,5.917 20.167,5.828 20.167 C 5.739 20.167,5.667 20.279,5.667 20.417 C 5.667 20.554,5.597 20.667,5.511 20.667 C 5.426 20.667,5.303 20.835,5.239 21.042 C 5.174 21.248,5.038 21.472,4.936 21.539 C 4.812 21.621,4.830 21.662,4.990 21.664 C 5.176 21.666,5.166 21.714,4.946 21.875 C 4.749 22.019,4.629 22.431,4.557 23.208 C 4.499 23.827,4.388 24.333,4.309 24.333 C 4.231 24.333,4.167 24.933,4.167 25.667 C 4.167 26.400,4.231 27.000,4.309 27.000 C 4.388 27.000,4.498 27.491,4.554 28.090 C 4.610 28.690,4.713 29.271,4.783 29.382 C 4.854 29.493,4.921 29.621,4.933 29.667 C 5.035 30.065,5.433 30.833,5.537 30.833 C 5.608 30.833,5.668 30.927,5.669 31.042 C 5.675 31.633,7.822 33.739,8.625 33.942 C 8.831 33.994,9.000 34.093,9.000 34.163 C 9.000 34.233,9.356 34.388,9.792 34.508 C 10.227 34.627,10.637 34.806,10.702 34.904 C 10.884 35.178,17.700 35.150,17.792 34.875 C 17.830 34.760,18.015 34.667,18.203 34.667 C 18.629 34.667,19.888 34.306,20.000 34.152 C 20.046 34.089,20.346 33.918,20.667 33.772 C 21.437 33.422,21.887 33.130,22.050 32.875 C 22.123 32.760,22.276 32.667,22.389 32.667 C 22.502 32.667,23.050 32.219,23.607 31.672 L 24.620 30.678 24.935 31.297 C 25.108 31.638,25.288 31.954,25.334 32.000 C 25.380 32.046,25.530 32.308,25.667 32.582 C 26.508 34.261,28.606 35.084,29.575 34.116 C 29.730 33.960,29.915 33.833,29.986 33.833 C 30.099 33.833,30.282 33.700,31.094 33.026 C 31.191 32.945,31.435 32.791,31.635 32.683 C 31.836 32.576,32.000 32.378,32.000 32.244 C 32.000 32.110,32.075 32.000,32.167 32.000 C 32.258 32.000,32.333 31.738,32.333 31.417 C 32.333 31.096,32.270 30.833,32.193 30.833 C 32.116 30.833,31.954 30.533,31.833 30.167 C 31.712 29.800,31.554 29.500,31.481 29.500 C 31.408 29.500,31.299 29.238,31.239 28.917 C 31.179 28.596,31.073 28.333,31.004 28.333 C 30.622 28.333,30.500 26.043,30.500 18.839 C 30.500 14.483,30.435 11.166,30.348 11.075 C 30.264 10.988,30.147 10.429,30.088 9.833 C 29.963 8.582,29.864 8.172,29.611 7.857 C 29.510 7.732,29.403 7.441,29.373 7.211 C 29.342 6.981,29.208 6.684,29.075 6.551 C 28.942 6.418,28.833 6.251,28.833 6.180 C 28.833 6.109,28.692 5.888,28.519 5.689 C 28.346 5.489,28.028 5.067,27.811 4.750 C 27.594 4.433,27.216 4.090,26.970 3.988 C 26.725 3.886,26.483 3.697,26.434 3.568 C 26.384 3.439,26.229 3.333,26.089 3.333 C 25.948 3.333,25.833 3.264,25.833 3.180 C 25.833 3.095,25.552 2.934,25.208 2.822 C 24.865 2.710,24.546 2.566,24.500 2.503 C 24.389 2.349,22.959 2.000,22.440 2.000 C 22.213 2.000,21.999 1.913,21.963 1.806 C 21.897 1.608,16.329 1.463,14.625 1.614 M88.419 1.612 C 88.053 1.656,87.716 1.747,87.669 1.814 C 87.622 1.882,87.147 2.033,86.613 2.150 C 85.578 2.377,84.733 2.759,84.367 3.167 C 84.243 3.304,84.189 3.324,84.245 3.212 C 84.308 3.088,84.148 3.121,83.842 3.295 C 83.563 3.454,83.335 3.640,83.334 3.708 C 83.334 3.777,83.246 3.833,83.140 3.833 C 82.900 3.833,80.833 5.902,80.833 6.142 C 80.833 6.238,80.738 6.377,80.621 6.450 C 80.359 6.616,80.000 7.410,80.000 7.827 C 80.000 7.999,79.924 8.164,79.832 8.195 C 79.271 8.382,79.236 13.599,79.793 13.986 C 79.870 14.039,80.023 14.393,80.134 14.772 C 80.244 15.151,80.447 15.554,80.584 15.667 C 80.721 15.781,80.833 15.940,80.833 16.021 C 80.833 16.268,82.927 18.288,83.309 18.409 C 83.506 18.471,83.667 18.589,83.667 18.671 C 83.667 18.753,83.967 18.910,84.333 19.020 C 84.700 19.130,85.000 19.274,85.000 19.341 C 85.000 19.408,85.262 19.512,85.583 19.572 C 85.904 19.633,86.167 19.743,86.167 19.818 C 86.167 19.893,86.617 20.050,87.167 20.167 C 87.717 20.283,88.167 20.432,88.167 20.496 C 88.167 20.560,88.692 20.712,89.333 20.833 C 89.975 20.954,90.500 21.110,90.500 21.179 C 90.500 21.248,90.800 21.355,91.166 21.417 C 91.532 21.478,91.869 21.590,91.915 21.664 C 91.961 21.739,92.374 21.890,92.833 22.000 C 93.291 22.110,93.667 22.252,93.667 22.316 C 93.667 22.381,93.937 22.531,94.267 22.650 C 95.047 22.932,96.150 24.042,96.276 24.672 C 96.330 24.944,96.422 25.167,96.479 25.167 C 96.536 25.167,96.583 25.467,96.583 25.833 C 96.583 26.200,96.535 26.500,96.477 26.500 C 96.418 26.500,96.321 26.762,96.261 27.083 C 96.201 27.404,96.089 27.667,96.013 27.667 C 95.936 27.667,95.788 27.874,95.683 28.128 C 95.577 28.384,95.253 28.693,94.954 28.823 C 94.659 28.951,94.377 29.115,94.329 29.186 C 94.281 29.256,93.869 29.411,93.413 29.529 C 92.957 29.648,92.530 29.821,92.464 29.914 C 92.305 30.141,86.681 30.121,86.529 29.893 C 86.467 29.801,85.760 29.625,84.958 29.503 C 84.156 29.380,83.500 29.230,83.500 29.170 C 83.500 29.110,83.125 28.958,82.667 28.833 C 82.208 28.709,81.833 28.551,81.833 28.483 C 81.833 28.415,81.590 28.308,81.292 28.244 C 80.994 28.180,80.679 28.085,80.592 28.033 C 80.273 27.844,79.582 27.909,79.295 28.155 C 78.594 28.755,78.983 32.833,79.742 32.833 C 79.864 32.833,80.008 32.946,80.060 33.083 C 80.113 33.221,80.271 33.333,80.411 33.333 C 80.552 33.333,80.667 33.409,80.667 33.501 C 80.667 33.593,81.004 33.758,81.417 33.869 C 81.829 33.979,82.167 34.122,82.167 34.186 C 82.167 34.251,82.710 34.394,83.375 34.504 C 84.040 34.614,84.661 34.767,84.757 34.844 C 84.852 34.920,85.621 35.035,86.465 35.099 C 87.309 35.162,88.000 35.279,88.000 35.357 C 88.000 35.436,88.900 35.500,90.000 35.500 C 91.100 35.500,92.000 35.436,92.000 35.358 C 92.000 35.280,92.614 35.169,93.363 35.111 C 94.113 35.053,94.769 34.944,94.822 34.868 C 94.874 34.792,95.348 34.635,95.875 34.519 C 96.402 34.404,96.833 34.252,96.833 34.181 C 96.833 34.111,97.133 33.954,97.500 33.833 C 97.867 33.712,98.167 33.550,98.167 33.473 C 98.167 33.396,98.282 33.333,98.422 33.333 C 98.562 33.333,98.720 33.221,98.773 33.083 C 98.826 32.946,98.965 32.833,99.083 32.833 C 99.355 32.833,101.132 31.038,101.260 30.635 C 101.313 30.469,101.423 30.333,101.505 30.333 C 101.586 30.333,101.743 30.033,101.853 29.667 C 101.963 29.300,102.108 29.000,102.175 29.000 C 102.329 29.000,102.460 28.481,102.599 27.324 C 102.658 26.825,102.773 26.392,102.854 26.361 C 103.058 26.284,103.038 24.333,102.833 24.333 C 102.742 24.333,102.667 24.077,102.667 23.763 C 102.667 23.049,102.317 21.500,102.156 21.500 C 102.090 21.500,101.994 21.331,101.942 21.125 C 101.773 20.454,100.223 18.746,99.409 18.334 C 99.138 18.196,98.861 17.998,98.794 17.894 C 98.726 17.789,98.464 17.652,98.212 17.589 C 97.960 17.525,97.708 17.401,97.653 17.312 C 97.598 17.222,97.338 17.127,97.076 17.099 C 96.814 17.071,96.571 16.962,96.536 16.857 C 96.501 16.752,96.399 16.667,96.310 16.667 C 96.220 16.667,96.193 16.741,96.249 16.831 C 96.307 16.926,96.240 16.954,96.092 16.897 C 95.950 16.842,95.833 16.737,95.833 16.663 C 95.833 16.590,95.533 16.479,95.167 16.417 C 94.800 16.355,94.500 16.246,94.500 16.175 C 94.500 16.104,94.050 15.950,93.500 15.833 C 92.950 15.717,92.500 15.563,92.500 15.492 C 92.500 15.421,91.975 15.275,91.333 15.167 C 90.692 15.058,90.167 14.905,90.167 14.826 C 90.167 14.747,89.904 14.633,89.583 14.572 C 89.263 14.512,89.000 14.392,89.000 14.305 C 89.000 14.218,88.925 14.193,88.833 14.250 C 88.742 14.307,88.667 14.280,88.667 14.190 C 88.667 14.100,88.442 13.977,88.167 13.917 C 87.892 13.856,87.667 13.738,87.667 13.653 C 87.667 13.569,87.581 13.500,87.476 13.500 C 87.224 13.500,86.171 12.471,86.168 12.222 C 86.167 12.115,86.073 11.996,85.958 11.958 C 85.658 11.858,85.707 9.463,86.017 9.097 C 86.806 8.163,87.313 7.667,87.478 7.667 C 87.582 7.667,87.667 7.605,87.667 7.529 C 87.667 7.373,89.145 7.000,89.763 7.000 C 89.985 7.000,90.167 6.925,90.167 6.833 C 90.167 6.733,90.861 6.667,91.917 6.667 C 92.972 6.667,93.667 6.733,93.667 6.833 C 93.667 6.925,93.896 7.000,94.176 7.000 C 95.006 7.000,97.000 7.370,97.000 7.524 C 97.000 7.603,97.132 7.667,97.294 7.667 C 97.456 7.667,97.877 7.821,98.229 8.010 C 99.168 8.513,100.417 8.627,100.836 8.248 C 101.203 7.915,101.353 4.500,101.000 4.500 C 100.908 4.500,100.831 4.406,100.828 4.292 C 100.819 3.938,100.384 3.483,100.028 3.456 C 99.842 3.442,99.734 3.359,99.789 3.270 C 99.846 3.178,99.768 3.156,99.602 3.220 C 99.431 3.285,99.357 3.263,99.419 3.164 C 99.536 2.974,99.250 2.837,98.591 2.767 C 98.340 2.740,98.086 2.640,98.026 2.543 C 97.966 2.447,97.317 2.270,96.583 2.150 C 95.850 2.030,95.202 1.863,95.144 1.778 C 95.031 1.615,89.535 1.480,88.419 1.612 M33.583 2.548 C 33.391 2.781,33.328 4.667,33.513 4.667 C 33.580 4.667,33.687 5.042,33.750 5.500 C 33.813 5.958,33.924 6.333,33.997 6.333 C 34.069 6.333,34.221 6.821,34.333 7.417 C 34.446 8.012,34.597 8.500,34.668 8.500 C 34.740 8.500,34.887 9.005,34.995 9.622 C 35.102 10.240,35.271 10.795,35.370 10.856 C 35.470 10.918,35.578 11.215,35.611 11.517 C 35.644 11.819,35.729 12.108,35.799 12.158 C 35.870 12.209,36.026 12.737,36.146 13.333 C 36.265 13.928,36.419 14.453,36.487 14.499 C 36.555 14.546,36.708 15.052,36.828 15.625 C 36.948 16.198,37.101 16.667,37.168 16.667 C 37.235 16.667,37.340 17.042,37.401 17.500 C 37.462 17.958,37.589 18.333,37.684 18.333 C 37.780 18.333,37.809 18.480,37.750 18.667 C 37.691 18.853,37.720 19.000,37.816 19.000 C 37.911 19.000,38.038 19.375,38.099 19.833 C 38.160 20.292,38.267 20.667,38.337 20.667 C 38.407 20.667,38.561 21.154,38.679 21.750 C 38.798 22.346,38.947 22.833,39.012 22.833 C 39.076 22.833,39.221 23.321,39.333 23.917 C 39.446 24.512,39.595 25.000,39.664 25.000 C 39.734 25.000,39.841 25.317,39.903 25.703 C 39.965 26.090,40.101 26.459,40.204 26.523 C 40.308 26.588,40.405 26.777,40.419 26.945 C 40.494 27.856,40.704 28.833,40.825 28.833 C 40.900 28.833,41.054 29.322,41.167 29.919 C 41.280 30.516,41.432 31.041,41.505 31.086 C 41.578 31.131,41.688 31.468,41.750 31.834 C 41.812 32.200,41.936 32.500,42.026 32.500 C 42.116 32.500,42.142 32.650,42.083 32.833 C 42.023 33.025,42.053 33.167,42.155 33.167 C 42.253 33.167,42.333 33.268,42.333 33.391 C 42.333 34.259,42.871 34.417,45.830 34.417 C 48.740 34.417,49.333 34.274,49.333 33.571 C 49.333 33.456,49.413 33.335,49.510 33.302 C 49.607 33.270,49.770 32.701,49.873 32.038 C 49.975 31.376,50.112 30.833,50.176 30.833 C 50.240 30.833,50.386 30.233,50.500 29.500 C 50.614 28.767,50.765 28.167,50.834 28.167 C 50.904 28.167,51.013 27.679,51.077 27.083 C 51.141 26.488,51.254 26.000,51.328 26.000 C 51.449 26.000,51.596 25.311,51.772 23.926 C 51.806 23.656,51.902 23.394,51.985 23.342 C 52.068 23.291,52.229 22.612,52.341 21.833 C 52.454 21.054,52.607 20.377,52.681 20.329 C 52.756 20.280,52.848 19.980,52.888 19.662 C 53.035 18.467,53.213 17.667,53.333 17.667 C 53.401 17.667,53.507 17.222,53.569 16.678 C 53.630 16.135,53.746 15.666,53.826 15.637 C 53.906 15.607,54.016 15.246,54.070 14.833 C 54.243 13.515,54.376 12.919,54.517 12.827 C 54.593 12.778,54.695 12.341,54.743 11.856 C 54.791 11.372,54.910 10.849,55.007 10.696 C 55.155 10.461,55.167 10.474,55.085 10.778 C 55.031 10.976,55.057 11.182,55.143 11.236 C 55.230 11.289,55.353 11.783,55.417 12.333 C 55.480 12.883,55.590 13.333,55.660 13.333 C 55.730 13.333,55.881 13.915,55.995 14.625 C 56.110 15.335,56.270 15.958,56.351 16.010 C 56.500 16.103,56.591 16.551,56.770 18.083 C 56.824 18.542,56.943 18.964,57.036 19.021 C 57.128 19.079,57.226 19.423,57.253 19.786 C 57.280 20.149,57.414 20.777,57.551 21.182 C 57.689 21.586,57.854 22.273,57.919 22.708 C 57.984 23.144,58.094 23.500,58.162 23.500 C 58.231 23.500,58.387 24.175,58.509 25.000 C 58.631 25.825,58.783 26.500,58.846 26.500 C 58.910 26.500,59.013 26.911,59.076 27.414 C 59.139 27.917,59.263 28.373,59.352 28.428 C 59.441 28.483,59.470 28.665,59.417 28.833 C 59.363 29.001,59.393 29.184,59.482 29.239 C 59.571 29.294,59.695 29.750,59.758 30.253 C 59.820 30.755,59.926 31.167,59.993 31.167 C 60.059 31.167,60.205 31.678,60.316 32.302 C 60.453 33.066,60.657 33.598,60.940 33.927 L 61.360 34.417 64.208 34.417 C 66.338 34.417,67.073 34.364,67.125 34.208 C 67.163 34.094,67.301 34.000,67.431 34.000 C 67.571 34.000,67.750 33.693,67.869 33.250 C 67.979 32.837,68.119 32.500,68.180 32.500 C 68.241 32.500,68.340 32.125,68.401 31.667 C 68.462 31.208,68.574 30.833,68.650 30.833 C 68.726 30.833,68.883 30.383,69.000 29.833 C 69.117 29.283,69.260 28.833,69.318 28.833 C 69.376 28.833,69.520 28.329,69.636 27.713 C 69.753 27.097,69.911 26.554,69.987 26.505 C 70.125 26.417,70.342 25.604,70.430 24.851 C 70.455 24.631,70.547 24.406,70.634 24.351 C 70.721 24.295,70.846 23.931,70.911 23.542 C 70.976 23.152,71.090 22.833,71.163 22.833 C 71.237 22.833,71.394 22.346,71.512 21.750 C 71.631 21.154,71.798 20.667,71.883 20.667 C 71.969 20.667,72.003 20.481,71.960 20.255 C 71.917 20.029,71.937 19.878,72.005 19.920 C 72.074 19.962,72.180 19.660,72.242 19.248 C 72.303 18.837,72.420 18.500,72.500 18.500 C 72.580 18.500,72.697 18.162,72.759 17.750 C 72.821 17.337,72.926 17.000,72.992 17.000 C 73.059 17.000,73.209 16.569,73.325 16.042 C 73.442 15.515,73.597 15.008,73.670 14.917 C 73.742 14.825,73.894 14.281,74.006 13.708 C 74.118 13.135,74.263 12.667,74.328 12.667 C 74.394 12.667,74.542 12.235,74.659 11.708 C 74.775 11.181,74.929 10.675,75.000 10.583 C 75.071 10.492,75.182 10.098,75.246 9.708 C 75.310 9.319,75.419 9.000,75.488 9.000 C 75.557 9.000,75.709 8.569,75.825 8.042 C 75.942 7.515,76.093 7.008,76.160 6.917 C 76.228 6.825,76.380 6.281,76.498 5.708 C 76.616 5.135,76.777 4.667,76.856 4.667 C 76.935 4.667,77.000 4.217,77.000 3.667 C 77.000 2.889,76.944 2.667,76.750 2.667 C 76.612 2.667,76.500 2.592,76.500 2.500 C 76.500 2.396,75.556 2.333,74.000 2.333 C 72.444 2.333,71.500 2.396,71.500 2.500 C 71.500 2.592,71.393 2.667,71.261 2.667 C 70.880 2.667,70.340 3.572,70.226 4.402 C 70.168 4.823,70.067 5.167,70.000 5.167 C 69.934 5.167,69.788 5.729,69.677 6.417 C 69.567 7.104,69.415 7.667,69.342 7.667 C 69.268 7.667,69.114 8.267,69.000 9.000 C 68.886 9.733,68.735 10.333,68.665 10.333 C 68.596 10.333,68.487 10.746,68.424 11.250 C 68.361 11.754,68.248 12.167,68.172 12.167 C 68.097 12.167,68.034 12.335,68.033 12.542 C 68.030 13.032,67.665 14.536,67.497 14.750 C 67.425 14.842,67.269 15.498,67.151 16.208 C 67.032 16.919,66.866 17.500,66.782 17.500 C 66.698 17.500,66.661 17.721,66.701 17.991 C 66.741 18.261,66.712 18.444,66.637 18.398 C 66.561 18.352,66.500 18.528,66.500 18.790 C 66.500 19.052,66.435 19.338,66.356 19.425 C 66.155 19.646,65.805 21.152,65.914 21.328 C 65.963 21.408,65.897 21.579,65.767 21.709 C 65.637 21.839,65.434 22.520,65.316 23.223 C 65.198 23.925,65.050 24.500,64.988 24.500 C 64.925 24.500,64.781 25.099,64.667 25.831 C 64.433 27.337,64.243 27.417,64.076 26.081 C 64.013 25.578,63.902 25.167,63.829 25.167 C 63.756 25.167,63.604 24.492,63.491 23.667 C 63.378 22.842,63.229 22.167,63.160 22.167 C 63.091 22.167,62.940 21.529,62.824 20.750 C 62.708 19.971,62.559 19.333,62.492 19.333 C 62.426 19.333,62.320 18.921,62.257 18.417 C 62.194 17.913,62.084 17.500,62.013 17.500 C 61.942 17.500,61.792 16.845,61.680 16.044 C 61.568 15.244,61.400 14.541,61.307 14.483 C 61.213 14.426,61.118 14.162,61.094 13.898 C 60.983 12.629,60.782 11.500,60.668 11.500 C 60.598 11.500,60.447 10.881,60.332 10.125 C 60.217 9.369,60.062 8.673,59.989 8.579 C 59.915 8.485,59.803 8.016,59.739 7.538 C 59.676 7.059,59.566 6.667,59.496 6.667 C 59.425 6.667,59.277 6.029,59.167 5.250 C 59.056 4.471,58.909 3.833,58.840 3.833 C 58.771 3.833,58.645 3.590,58.560 3.292 C 58.442 2.874,58.302 2.738,57.953 2.697 C 57.704 2.668,57.500 2.575,57.500 2.489 C 57.500 1.784,51.718 2.511,51.648 3.225 C 51.559 4.122,51.494 4.401,51.352 4.488 C 51.262 4.544,51.136 4.982,51.073 5.461 C 51.009 5.941,50.892 6.333,50.812 6.333 C 50.732 6.333,50.667 6.413,50.667 6.510 C 50.667 6.607,50.735 6.644,50.818 6.593 C 50.901 6.542,50.930 6.650,50.882 6.833 C 50.834 7.017,50.738 7.167,50.669 7.167 C 50.600 7.167,50.492 7.617,50.430 8.167 C 50.368 8.717,50.255 9.167,50.180 9.167 C 50.057 9.167,49.935 9.786,49.723 11.495 C 49.683 11.813,49.590 12.113,49.516 12.162 C 49.442 12.210,49.282 12.869,49.161 13.625 C 49.039 14.381,48.886 15.000,48.820 15.000 C 48.754 15.000,48.647 15.450,48.583 16.000 C 48.519 16.550,48.406 17.000,48.331 17.000 C 48.256 17.000,48.099 17.675,47.982 18.500 C 47.865 19.325,47.718 20.000,47.655 20.000 C 47.592 20.000,47.447 20.600,47.333 21.333 C 47.219 22.067,47.070 22.667,47.001 22.667 C 46.933 22.667,46.826 23.114,46.764 23.662 C 46.702 24.209,46.579 24.701,46.492 24.755 C 46.404 24.809,46.378 25.037,46.434 25.260 C 46.496 25.508,46.464 25.667,46.351 25.667 C 46.250 25.667,46.167 25.860,46.167 26.095 C 46.167 27.005,45.719 26.076,45.496 24.705 C 45.373 23.950,45.221 23.333,45.157 23.333 C 45.093 23.333,44.947 22.733,44.833 22.000 C 44.719 21.267,44.569 20.667,44.499 20.667 C 44.429 20.667,44.320 20.254,44.257 19.750 C 44.194 19.246,44.087 18.833,44.018 18.833 C 43.949 18.833,43.796 18.232,43.676 17.497 C 43.557 16.762,43.402 16.126,43.332 16.083 C 43.262 16.039,43.112 15.497,42.997 14.877 C 42.883 14.257,42.729 13.673,42.655 13.579 C 42.582 13.485,42.469 13.016,42.406 12.538 C 42.342 12.059,42.234 11.667,42.166 11.667 C 42.097 11.667,41.947 11.067,41.833 10.333 C 41.719 9.600,41.569 9.000,41.500 9.000 C 41.431 9.000,41.281 8.400,41.167 7.667 C 41.053 6.933,40.893 6.333,40.813 6.333 C 40.732 6.333,40.667 6.121,40.667 5.861 C 40.667 5.601,40.619 5.341,40.561 5.283 C 40.503 5.225,40.430 4.899,40.400 4.560 C 40.369 4.221,40.273 3.899,40.185 3.845 C 40.098 3.791,39.979 3.559,39.922 3.330 C 39.716 2.510,39.065 2.333,36.278 2.340 C 34.508 2.344,33.700 2.407,33.583 2.548 M165.208 4.110 C 165.002 4.154,164.833 4.254,164.833 4.332 C 164.833 4.410,164.603 4.524,164.322 4.586 C 164.041 4.648,163.770 4.804,163.721 4.932 C 163.671 5.061,163.549 5.167,163.450 5.167 C 163.189 5.167,162.333 6.021,162.333 6.281 C 162.333 6.402,162.275 6.500,162.203 6.500 C 162.060 6.500,161.628 7.437,161.588 7.833 C 161.574 7.971,161.504 8.212,161.432 8.370 C 161.210 8.857,161.456 10.747,161.849 11.577 C 162.136 12.182,163.359 13.500,163.633 13.500 C 163.743 13.500,163.833 13.570,163.833 13.656 C 163.833 13.742,164.096 13.907,164.417 14.023 C 164.737 14.139,165.000 14.285,165.000 14.348 C 165.000 14.411,165.262 14.512,165.583 14.572 C 165.904 14.633,166.167 14.741,166.167 14.814 C 166.167 14.887,166.579 15.046,167.083 15.167 C 167.587 15.288,168.000 15.444,168.000 15.513 C 168.000 15.583,168.244 15.692,168.542 15.755 C 168.840 15.818,169.308 16.003,169.583 16.166 C 169.858 16.329,170.260 16.516,170.476 16.581 C 171.073 16.762,171.817 17.676,171.936 18.375 C 171.995 18.719,172.108 19.000,172.188 19.000 C 172.268 19.000,172.333 19.112,172.333 19.250 C 172.333 19.387,172.276 19.500,172.206 19.500 C 172.136 19.500,171.991 19.870,171.883 20.323 C 171.679 21.183,171.217 21.782,170.505 22.111 C 170.249 22.230,170.181 22.317,170.333 22.334 C 171.059 22.414,168.360 22.813,167.032 22.823 C 165.414 22.834,163.167 22.544,163.167 22.324 C 163.167 22.164,161.899 21.940,161.698 22.064 C 161.617 22.114,161.603 22.495,161.666 22.911 C 161.742 23.414,161.720 23.670,161.599 23.678 C 161.499 23.684,161.604 23.777,161.833 23.883 C 162.063 23.990,162.340 24.163,162.450 24.268 C 162.560 24.374,163.066 24.512,163.575 24.575 C 164.084 24.639,164.500 24.760,164.500 24.845 C 164.500 24.934,165.638 25.000,167.167 25.000 C 168.633 25.000,169.833 24.933,169.833 24.852 C 169.833 24.770,170.115 24.652,170.458 24.588 C 171.553 24.385,173.477 22.867,173.751 21.990 C 173.821 21.766,173.962 21.530,174.064 21.464 C 174.185 21.387,174.250 20.609,174.250 19.250 C 174.250 17.891,174.185 17.113,174.064 17.036 C 173.962 16.970,173.821 16.729,173.751 16.500 C 173.631 16.111,172.743 15.167,172.495 15.167 C 172.434 15.167,172.211 15.017,172.000 14.833 C 171.789 14.650,171.515 14.500,171.391 14.500 C 171.268 14.500,171.167 14.417,171.167 14.316 C 171.167 14.214,171.054 14.174,170.917 14.227 C 170.779 14.280,170.667 14.259,170.667 14.180 C 170.667 14.101,170.386 13.984,170.042 13.920 C 169.699 13.855,169.373 13.731,169.319 13.643 C 169.264 13.555,169.039 13.456,168.818 13.422 C 168.149 13.321,167.667 13.136,167.667 12.981 C 167.667 12.900,167.545 12.833,167.396 12.833 C 165.949 12.833,163.809 11.045,163.701 9.746 C 163.630 8.886,163.916 7.334,164.147 7.333 C 164.203 7.333,164.474 7.140,164.748 6.904 C 165.023 6.669,165.454 6.434,165.707 6.384 C 165.960 6.333,166.167 6.226,166.167 6.146 C 166.167 6.066,166.992 6.000,168.000 6.000 C 169.008 6.000,169.833 6.065,169.833 6.145 C 169.833 6.287,170.524 6.418,172.292 6.612 L 173.167 6.708 173.167 5.787 L 173.167 4.867 172.292 4.659 C 171.810 4.545,171.363 4.369,171.298 4.267 C 171.177 4.080,165.975 3.945,165.208 4.110 M126.167 14.504 L 126.167 24.519 131.042 24.463 C 135.900 24.408,137.608 24.164,137.049 23.605 C 136.992 23.547,137.098 23.500,137.287 23.500 C 137.745 23.500,138.784 22.406,139.023 21.673 C 139.129 21.349,139.298 21.030,139.399 20.964 C 139.652 20.801,139.650 17.031,139.397 16.869 C 139.295 16.804,139.154 16.563,139.083 16.333 C 138.940 15.869,137.650 14.500,137.355 14.500 C 137.252 14.500,137.167 14.421,137.167 14.323 C 137.167 14.226,137.100 14.188,137.019 14.238 C 136.521 14.546,136.590 13.873,137.094 13.500 C 137.404 13.271,137.660 13.001,137.662 12.901 C 137.665 12.800,137.817 12.545,138.000 12.333 C 138.336 11.946,138.372 11.736,138.416 9.917 C 138.444 8.716,138.203 7.167,137.988 7.167 C 137.903 7.167,137.833 7.052,137.833 6.911 C 137.833 6.771,137.721 6.613,137.583 6.560 C 137.446 6.508,137.333 6.369,137.333 6.252 C 137.333 6.019,136.295 5.167,136.011 5.167 C 135.913 5.167,135.833 5.101,135.833 5.020 C 135.833 4.673,134.168 4.518,130.292 4.505 L 126.167 4.490 126.167 14.504 M143.333 14.514 L 143.333 24.528 147.923 24.472 C 151.641 24.427,152.540 24.372,152.657 24.182 C 152.737 24.054,153.008 23.926,153.261 23.899 C 153.513 23.872,153.764 23.782,153.818 23.698 C 153.872 23.614,154.077 23.495,154.272 23.434 C 154.467 23.373,154.786 23.194,154.981 23.037 C 155.175 22.879,155.559 22.566,155.834 22.341 C 156.109 22.116,156.333 21.833,156.333 21.711 C 156.333 21.589,156.444 21.447,156.578 21.396 C 156.713 21.344,156.916 21.046,157.028 20.734 C 157.141 20.422,157.288 20.167,157.354 20.167 C 157.420 20.167,157.526 19.923,157.589 19.625 C 157.653 19.327,157.773 18.998,157.857 18.895 C 158.459 18.145,158.429 10.546,157.821 9.925 C 157.736 9.838,157.667 9.637,157.667 9.479 C 157.667 9.320,157.565 9.089,157.442 8.966 C 157.318 8.842,157.129 8.476,157.022 8.151 C 156.915 7.827,156.561 7.304,156.235 6.989 C 155.909 6.674,155.518 6.285,155.367 6.125 C 155.216 5.965,154.997 5.833,154.880 5.833 C 154.762 5.833,154.667 5.765,154.667 5.682 C 154.667 5.470,153.399 4.883,152.500 4.679 C 152.087 4.585,149.856 4.506,147.542 4.504 L 143.333 4.500 143.333 14.514 M178.000 14.500 L 178.000 24.500 179.000 24.500 L 180.000 24.500 180.000 14.500 L 180.000 4.500 179.000 4.500 L 178.000 4.500 178.000 14.500 M100.955 7.208 C 100.920 7.598,100.892 7.279,100.892 6.500 C 100.892 5.721,100.920 5.402,100.955 5.792 C 100.990 6.181,100.990 6.819,100.955 7.208 M148.833 6.146 C 148.833 6.226,149.452 6.337,150.208 6.392 C 152.103 6.531,152.388 6.582,152.460 6.795 C 152.494 6.898,152.760 7.064,153.052 7.165 C 153.531 7.331,154.977 8.859,155.150 9.382 C 155.187 9.493,155.277 9.623,155.351 9.672 C 155.424 9.720,155.580 10.264,155.697 10.880 C 155.814 11.496,155.967 12.000,156.038 12.000 C 156.109 12.000,156.167 13.125,156.167 14.500 C 156.167 15.875,156.105 17.000,156.031 17.000 C 155.956 17.000,155.794 17.504,155.672 18.121 C 155.549 18.737,155.367 19.328,155.266 19.434 C 155.166 19.539,154.971 19.795,154.833 20.001 C 154.486 20.522,153.569 21.500,153.427 21.500 C 153.362 21.500,153.197 21.612,153.060 21.750 C 152.922 21.887,152.609 22.049,152.363 22.109 C 152.118 22.169,151.870 22.289,151.814 22.375 C 151.691 22.561,148.855 22.816,146.792 22.826 L 145.333 22.833 145.333 14.417 L 145.333 6.000 147.083 6.000 C 148.046 6.000,148.833 6.066,148.833 6.146 M133.077 6.490 C 133.807 6.567,134.431 6.709,134.463 6.805 C 134.495 6.902,134.784 7.068,135.105 7.174 C 135.426 7.280,135.649 7.406,135.600 7.455 C 135.552 7.504,135.622 7.701,135.756 7.892 C 135.890 8.084,136.000 8.374,136.000 8.537 C 136.000 8.700,136.075 8.833,136.167 8.833 C 136.259 8.833,136.333 9.278,136.333 9.833 C 136.333 10.389,136.259 10.833,136.167 10.833 C 136.075 10.833,136.000 10.977,136.000 11.152 C 136.000 11.548,135.012 12.588,134.478 12.755 C 134.261 12.823,134.037 12.950,133.981 13.037 C 133.925 13.125,132.631 13.237,131.106 13.288 L 128.333 13.379 128.333 9.856 L 128.333 6.333 130.042 6.342 C 130.981 6.347,132.347 6.414,133.077 6.490 M135.083 15.563 C 135.358 15.711,135.666 15.832,135.767 15.832 C 136.940 15.839,137.935 19.956,136.955 20.750 C 136.842 20.842,136.643 21.124,136.512 21.377 C 136.352 21.688,136.054 21.902,135.596 22.036 C 135.222 22.145,134.868 22.304,134.809 22.390 C 134.750 22.476,133.269 22.584,131.517 22.630 L 128.333 22.713 128.333 18.917 L 128.333 15.120 131.458 15.208 C 133.883 15.276,134.695 15.355,135.083 15.563 M20.164 20.173 C 21.491 20.273,22.617 20.419,22.665 20.497 C 22.713 20.576,23.015 20.664,23.335 20.695 L 23.917 20.750 23.966 22.076 C 24.018 23.475,23.778 25.488,23.539 25.653 C 23.461 25.706,23.294 26.012,23.167 26.333 C 23.040 26.654,22.838 26.977,22.718 27.050 C 22.598 27.123,22.500 27.305,22.500 27.453 C 22.500 27.601,22.451 27.673,22.390 27.613 C 22.249 27.471,21.812 27.830,21.917 28.001 C 21.962 28.073,21.811 28.178,21.582 28.235 C 21.354 28.293,21.167 28.407,21.167 28.490 C 21.167 28.573,20.904 28.727,20.583 28.833 C 20.262 28.939,20.000 29.090,20.000 29.168 C 20.000 29.246,19.569 29.402,19.042 29.516 C 18.515 29.629,17.987 29.796,17.869 29.886 C 17.552 30.129,14.017 30.131,13.867 29.888 C 13.801 29.781,13.535 29.640,13.277 29.575 C 13.018 29.510,12.770 29.362,12.725 29.245 C 12.680 29.128,12.499 28.995,12.322 28.949 C 12.145 28.902,12.000 28.753,12.000 28.617 C 12.000 28.480,11.895 28.329,11.766 28.279 C 11.637 28.230,11.477 27.940,11.411 27.636 C 11.345 27.332,11.212 27.033,11.115 26.971 C 10.870 26.815,10.880 23.623,11.127 23.541 C 11.230 23.507,11.403 23.210,11.511 22.883 C 11.619 22.555,11.961 22.065,12.270 21.793 C 12.579 21.522,12.799 21.246,12.758 21.179 C 12.717 21.113,13.073 20.960,13.550 20.839 C 14.027 20.718,14.454 20.566,14.500 20.500 C 14.803 20.068,17.044 19.938,20.164 20.173 M102.786 25.623 C 102.748 25.876,102.716 25.708,102.714 25.250 C 102.713 24.792,102.744 24.584,102.784 24.789 C 102.824 24.994,102.825 25.369,102.786 25.623 M158.000 41.176 C 158.000 51.607,158.037 52.125,158.806 52.521 C 159.050 52.647,159.294 52.809,159.348 52.882 C 159.401 52.955,160.076 52.992,160.848 52.966 L 162.250 52.917 162.250 52.083 L 162.250 51.250 161.305 51.166 C 160.785 51.119,160.297 51.019,160.221 50.944 C 160.145 50.868,160.063 46.462,160.038 41.153 L 159.992 31.500 158.996 31.500 L 158.000 31.500 158.000 41.176 M129.125 32.611 C 128.873 32.654,128.667 32.751,128.667 32.828 C 128.667 32.905,128.442 33.046,128.167 33.142 C 127.892 33.238,127.667 33.395,127.667 33.491 C 127.667 33.588,127.557 33.667,127.422 33.667 C 127.038 33.667,126.230 34.553,126.012 35.212 C 125.904 35.542,125.726 35.841,125.618 35.877 C 125.251 36.000,125.380 39.307,125.780 40.031 C 126.163 40.724,127.357 42.000,127.623 42.000 C 127.719 42.000,127.838 42.105,127.888 42.234 C 127.937 42.363,128.208 42.519,128.489 42.581 C 128.770 42.643,129.000 42.750,129.000 42.820 C 129.000 42.890,129.412 43.046,129.917 43.167 C 130.421 43.288,130.833 43.441,130.833 43.507 C 130.833 43.573,131.171 43.712,131.583 43.816 C 131.996 43.920,132.333 44.079,132.333 44.169 C 132.333 44.259,132.450 44.333,132.594 44.333 C 133.689 44.333,135.792 45.948,135.948 46.909 C 136.000 47.234,136.109 47.500,136.188 47.500 C 136.268 47.500,136.333 47.612,136.333 47.750 C 136.333 47.887,136.268 48.000,136.188 48.000 C 136.108 48.000,135.995 48.300,135.936 48.667 C 135.877 49.033,135.747 49.333,135.647 49.333 C 135.546 49.333,135.508 49.446,135.560 49.583 C 135.613 49.721,135.598 49.833,135.526 49.833 C 135.455 49.833,135.243 49.976,135.055 50.151 C 134.111 51.031,128.998 51.994,129.000 51.292 C 129.000 51.223,128.790 51.167,128.533 51.167 C 128.277 51.167,127.995 51.102,127.908 51.023 C 127.720 50.852,126.331 50.500,125.843 50.500 C 125.146 50.500,125.355 52.259,126.083 52.523 C 126.404 52.639,126.667 52.785,126.667 52.848 C 126.667 52.910,127.078 53.013,127.581 53.076 C 128.083 53.139,128.532 53.250,128.577 53.324 C 128.697 53.517,133.618 53.547,133.737 53.355 C 133.791 53.267,134.135 53.145,134.501 53.083 C 134.867 53.021,135.167 52.910,135.167 52.835 C 135.167 52.760,135.373 52.623,135.625 52.530 C 136.247 52.300,137.200 51.359,137.060 51.114 C 136.997 51.005,137.005 50.969,137.076 51.034 C 137.299 51.235,137.765 50.602,138.084 49.667 C 138.099 49.621,138.171 49.450,138.242 49.288 C 138.429 48.863,138.272 45.669,138.058 45.532 C 137.959 45.468,137.825 45.246,137.760 45.036 C 137.571 44.433,136.327 43.346,135.538 43.096 C 135.334 43.031,135.167 42.913,135.167 42.834 C 135.167 42.755,134.754 42.598,134.250 42.485 C 133.746 42.373,133.333 42.221,133.333 42.148 C 133.333 42.075,133.071 41.966,132.750 41.906 C 132.429 41.845,132.167 41.722,132.167 41.630 C 132.167 41.539,132.054 41.508,131.917 41.560 C 131.779 41.613,131.667 41.592,131.667 41.513 C 131.667 41.435,131.404 41.321,131.083 41.261 C 130.762 41.201,130.500 41.098,130.500 41.033 C 130.500 40.968,130.191 40.818,129.813 40.700 C 128.121 40.172,127.247 38.361,127.830 36.593 C 128.027 35.996,128.705 35.167,128.996 35.167 C 129.077 35.167,129.270 35.040,129.425 34.884 C 129.952 34.358,134.473 34.348,134.845 34.873 C 134.898 34.947,135.442 35.054,136.054 35.111 L 137.167 35.215 137.167 34.291 L 137.167 33.367 136.292 33.159 C 135.810 33.045,135.363 32.869,135.298 32.767 C 135.177 32.581,130.069 32.452,129.125 32.611 M191.292 33.180 C 190.871 33.425,190.881 35.007,191.305 35.391 C 191.781 35.822,193.502 35.779,193.618 35.333 C 193.666 35.150,193.772 35.000,193.853 35.000 C 193.934 35.000,194.000 34.700,194.000 34.333 C 194.000 33.967,193.934 33.667,193.853 33.667 C 193.772 33.667,193.666 33.517,193.618 33.333 C 193.520 32.957,191.861 32.848,191.292 33.180 M249.833 42.991 L 249.833 53.000 250.750 53.000 C 251.369 53.000,251.669 52.932,251.672 52.792 C 251.676 52.677,251.673 50.877,251.667 48.792 L 251.656 45.000 255.254 45.000 C 258.547 45.000,258.916 44.971,259.616 44.652 C 260.527 44.237,261.832 43.038,261.833 42.615 C 261.833 42.449,261.908 42.360,262.000 42.417 C 262.092 42.473,262.172 42.459,262.179 42.385 C 262.226 41.893,262.340 41.599,262.531 41.481 C 262.900 41.253,262.841 36.527,262.465 36.317 C 262.308 36.229,262.223 36.048,262.274 35.914 C 262.327 35.777,262.251 35.624,262.101 35.567 C 261.954 35.510,261.833 35.365,261.833 35.244 C 261.833 35.017,260.798 33.833,260.599 33.833 C 260.537 33.833,260.258 33.665,259.980 33.458 C 259.486 33.093,259.350 33.082,254.653 33.032 L 249.833 32.981 249.833 42.991 M357.792 33.180 C 357.371 33.425,357.381 35.007,357.805 35.391 C 358.281 35.822,360.002 35.779,360.118 35.333 C 360.166 35.150,360.272 35.000,360.353 35.000 C 360.434 35.000,360.500 34.700,360.500 34.333 C 360.500 33.967,360.434 33.667,360.353 33.667 C 360.272 33.667,360.166 33.517,360.118 33.333 C 360.020 32.957,358.361 32.848,357.792 33.180 M182.167 34.750 C 182.167 34.979,182.092 35.167,182.000 35.167 C 181.901 35.167,181.833 35.806,181.833 36.750 L 181.833 38.333 180.601 38.333 C 179.244 38.333,179.167 38.393,179.167 39.430 L 179.167 40.000 180.500 40.000 L 181.833 40.000 181.833 45.667 C 181.833 49.007,181.896 51.333,181.987 51.333 C 182.071 51.333,182.190 51.559,182.250 51.835 C 182.311 52.110,182.523 52.422,182.722 52.526 C 182.921 52.631,183.137 52.799,183.202 52.900 C 183.341 53.115,186.683 53.252,187.782 53.087 L 188.517 52.977 188.467 52.114 L 188.417 51.250 186.431 51.250 C 184.986 51.250,184.426 51.193,184.375 51.041 C 184.337 50.925,184.242 50.870,184.165 50.918 C 184.088 50.965,184.017 48.554,184.007 45.560 C 183.996 42.565,183.960 40.071,183.926 40.016 C 183.892 39.961,184.907 39.939,186.182 39.967 L 188.500 40.018 188.500 39.175 L 188.500 38.333 186.250 38.333 L 184.000 38.333 184.000 36.434 C 184.000 34.322,184.006 34.333,182.820 34.333 C 182.234 34.333,182.167 34.376,182.167 34.750 M292.579 35.229 C 292.516 35.731,292.515 36.223,292.577 36.324 C 292.639 36.424,292.639 36.917,292.576 37.420 L 292.462 38.333 291.302 38.333 C 289.965 38.333,289.737 38.484,289.721 39.375 L 289.710 40.000 291.105 40.000 L 292.500 40.000 292.511 45.375 C 292.523 50.972,292.554 51.655,292.795 51.818 C 292.875 51.872,292.990 52.050,293.050 52.212 C 293.110 52.375,293.292 52.557,293.455 52.617 C 293.617 52.677,293.804 52.806,293.869 52.905 C 294.071 53.208,298.808 53.142,299.004 52.833 C 299.239 52.461,299.205 51.337,298.958 51.313 C 298.844 51.301,297.940 51.283,296.949 51.271 C 294.332 51.240,294.508 51.678,294.504 45.213 L 294.500 40.009 296.792 39.963 C 299.314 39.912,299.381 39.876,299.094 38.733 C 298.994 38.336,298.979 38.333,296.752 38.333 L 294.511 38.333 294.464 36.375 L 294.417 34.417 293.555 34.367 L 292.693 34.317 292.579 35.229 M318.596 35.117 C 318.538 35.557,318.531 36.104,318.578 36.333 C 318.626 36.563,318.618 37.106,318.561 37.542 L 318.457 38.333 317.300 38.333 C 315.957 38.333,315.667 38.523,315.667 39.405 L 315.667 40.000 317.083 40.000 L 318.500 40.000 318.511 45.375 C 318.523 50.972,318.554 51.655,318.795 51.818 C 318.875 51.872,318.990 52.050,319.050 52.212 C 319.110 52.375,319.292 52.557,319.455 52.617 C 319.617 52.677,319.804 52.806,319.869 52.905 C 320.071 53.208,324.808 53.142,325.004 52.833 C 325.239 52.461,325.205 51.337,324.958 51.313 C 324.844 51.301,323.940 51.283,322.949 51.271 C 320.332 51.240,320.508 51.678,320.504 45.213 L 320.500 40.009 322.792 39.963 C 325.314 39.912,325.381 39.876,325.094 38.733 C 324.994 38.336,324.979 38.333,322.752 38.333 L 320.511 38.333 320.464 36.375 L 320.417 34.417 319.558 34.367 L 318.700 34.317 318.596 35.117 M256.500 34.833 C 256.500 34.925,256.895 35.000,257.378 35.000 C 259.008 35.000,260.500 36.393,260.500 37.915 C 260.500 38.226,260.575 38.527,260.667 38.583 C 260.758 38.640,260.833 38.869,260.833 39.093 C 260.833 39.317,260.758 39.500,260.667 39.500 C 260.575 39.500,260.500 39.720,260.500 39.989 C 260.500 40.620,260.257 41.251,259.842 41.696 C 259.660 41.891,259.552 42.116,259.601 42.196 C 259.651 42.276,259.630 42.328,259.554 42.311 C 259.340 42.262,258.436 42.667,258.313 42.866 C 258.243 42.979,256.993 43.076,254.935 43.128 L 251.667 43.210 251.667 38.938 L 251.667 34.667 254.083 34.667 C 255.583 34.667,256.500 34.730,256.500 34.833 M90.544 35.284 C 90.339 35.324,89.964 35.325,89.711 35.286 C 89.457 35.248,89.625 35.216,90.083 35.214 C 90.542 35.213,90.749 35.244,90.544 35.284 M145.125 38.200 C 144.781 38.292,144.500 38.434,144.500 38.517 C 144.500 38.599,144.418 38.667,144.318 38.667 C 143.962 38.667,142.842 39.591,142.653 40.042 C 142.546 40.294,142.395 40.500,142.316 40.500 C 142.237 40.500,142.126 40.688,142.068 40.917 C 142.011 41.146,141.905 41.333,141.833 41.333 C 141.682 41.333,141.506 41.965,141.392 42.917 C 141.349 43.283,141.242 43.608,141.156 43.639 C 140.942 43.715,140.952 47.667,141.167 47.667 C 141.258 47.667,141.333 47.858,141.333 48.093 C 141.333 48.718,141.683 50.000,141.853 50.000 C 141.934 50.000,142.000 50.101,142.000 50.224 C 142.000 50.347,142.187 50.666,142.416 50.932 C 142.646 51.199,142.833 51.510,142.833 51.625 C 142.833 51.740,142.897 51.833,142.974 51.833 C 143.051 51.833,143.333 52.021,143.599 52.250 C 143.865 52.479,144.177 52.666,144.292 52.666 C 144.406 52.667,144.500 52.738,144.500 52.826 C 144.500 52.913,144.763 53.034,145.085 53.095 C 145.407 53.155,145.713 53.273,145.765 53.357 C 145.879 53.543,149.966 53.522,150.082 53.336 C 150.126 53.264,150.426 53.155,150.748 53.095 C 151.070 53.034,151.333 52.913,151.333 52.826 C 151.333 52.738,151.445 52.667,151.582 52.667 C 151.719 52.667,151.924 52.517,152.039 52.333 C 152.153 52.150,152.344 52.000,152.462 52.000 C 152.580 52.000,152.727 51.870,152.788 51.712 C 152.848 51.554,153.072 51.263,153.284 51.067 C 153.496 50.870,153.756 50.456,153.862 50.146 C 153.968 49.837,154.113 49.544,154.184 49.496 C 154.409 49.345,154.664 47.311,154.664 45.667 C 154.664 44.022,154.409 41.988,154.184 41.837 C 154.113 41.789,153.972 41.508,153.871 41.212 C 153.662 40.601,153.531 40.423,152.541 39.400 C 152.151 38.997,151.719 38.667,151.582 38.667 C 151.445 38.667,151.333 38.601,151.333 38.520 C 151.333 38.053,146.598 37.809,145.125 38.200 M200.834 38.197 C 200.513 38.289,200.213 38.414,200.167 38.474 C 200.121 38.534,199.859 38.696,199.585 38.834 C 199.146 39.053,198.811 39.358,198.161 40.127 C 198.063 40.243,198.036 40.423,198.101 40.528 C 198.172 40.643,198.144 40.673,198.031 40.602 C 197.917 40.532,197.801 40.654,197.737 40.910 C 197.678 41.143,197.573 41.333,197.502 41.333 C 197.346 41.333,197.000 42.647,197.000 43.240 C 197.000 43.475,196.925 43.667,196.833 43.667 C 196.731 43.667,196.667 44.444,196.667 45.667 C 196.667 46.889,196.731 47.667,196.833 47.667 C 196.925 47.667,197.000 47.858,197.000 48.093 C 197.000 48.657,197.342 50.000,197.486 50.000 C 197.549 50.000,197.692 50.255,197.805 50.567 C 197.918 50.880,198.120 51.177,198.255 51.229 C 198.390 51.281,198.500 51.438,198.500 51.578 C 198.500 51.718,198.563 51.833,198.641 51.833 C 198.718 51.833,198.999 52.021,199.266 52.250 C 199.532 52.479,199.844 52.666,199.958 52.666 C 200.073 52.667,200.167 52.738,200.167 52.826 C 200.167 52.913,200.430 53.034,200.752 53.095 C 201.074 53.155,201.380 53.274,201.432 53.359 C 201.545 53.541,205.508 53.524,205.750 53.340 C 205.842 53.270,206.129 53.162,206.389 53.100 C 206.847 52.990,207.031 52.876,207.650 52.321 C 207.811 52.176,208.068 52.010,208.221 51.951 C 208.374 51.892,208.500 51.766,208.500 51.672 C 208.500 51.577,208.631 51.355,208.792 51.179 C 209.331 50.584,209.459 50.393,209.585 49.987 C 209.655 49.765,209.772 49.544,209.846 49.496 C 210.457 49.100,210.449 42.214,209.837 41.835 C 209.758 41.787,209.642 41.541,209.578 41.290 C 209.515 41.039,209.409 40.833,209.342 40.833 C 209.275 40.833,209.136 40.648,209.033 40.422 C 208.747 39.794,208.025 39.051,207.485 38.827 C 207.218 38.717,207.000 38.569,207.000 38.500 C 207.000 38.052,202.168 37.815,200.834 38.197 M218.872 38.121 C 218.572 38.158,218.364 38.248,218.408 38.320 C 218.453 38.393,218.305 38.416,218.078 38.373 C 217.852 38.330,217.667 38.366,217.667 38.454 C 217.667 38.542,217.367 38.712,217.000 38.833 C 216.633 38.954,216.333 39.108,216.333 39.174 C 216.333 39.631,215.680 39.412,215.634 38.940 C 215.583 38.417,215.583 38.417,214.583 38.417 L 213.583 38.417 213.583 45.667 L 213.583 52.917 214.625 52.966 L 215.667 53.016 215.667 47.329 C 215.667 41.574,215.714 41.099,216.274 41.286 C 216.377 41.320,216.583 41.226,216.733 41.077 C 216.882 40.927,217.285 40.728,217.627 40.634 C 217.970 40.540,218.302 40.379,218.367 40.277 C 218.848 39.508,223.333 40.251,223.333 41.100 C 223.333 41.213,223.427 41.337,223.542 41.375 C 223.702 41.428,223.762 42.786,223.803 47.222 L 223.857 53.000 224.849 53.000 L 225.841 53.000 225.787 46.875 C 225.721 39.475,225.804 40.020,224.555 38.745 C 223.887 38.062,221.482 37.798,218.872 38.121 M231.563 38.175 C 231.276 38.261,230.948 38.445,230.834 38.583 C 230.719 38.721,230.529 38.833,230.410 38.833 C 230.292 38.833,230.095 39.058,229.973 39.333 C 229.852 39.608,229.703 39.833,229.642 39.833 C 229.279 39.833,228.854 43.056,229.189 43.264 C 229.248 43.300,229.345 43.524,229.404 43.760 C 229.584 44.477,230.921 45.605,231.782 45.767 C 232.085 45.824,232.333 45.937,232.333 46.019 C 232.333 46.100,232.467 46.167,232.630 46.167 C 232.793 46.167,233.088 46.281,233.287 46.420 C 233.486 46.559,233.709 46.659,233.783 46.643 C 234.134 46.566,235.951 47.458,236.500 47.977 C 237.085 48.530,237.109 50.135,236.542 50.664 C 236.335 50.856,236.167 51.083,236.167 51.168 C 236.167 51.253,236.042 51.275,235.889 51.216 C 235.704 51.145,235.652 51.174,235.731 51.303 C 235.807 51.426,235.763 51.463,235.609 51.403 C 235.476 51.352,235.318 51.391,235.257 51.489 C 235.124 51.704,231.728 51.735,231.597 51.522 C 231.548 51.442,231.202 51.328,230.830 51.269 C 230.457 51.209,230.005 51.069,229.825 50.956 C 229.313 50.636,228.926 50.985,228.865 51.822 C 228.821 52.416,228.866 52.540,229.156 52.616 C 229.345 52.665,229.500 52.769,229.500 52.847 C 229.500 52.925,229.875 53.038,230.333 53.099 C 230.792 53.160,231.167 53.268,231.167 53.340 C 231.167 53.542,235.790 53.539,235.914 53.338 C 235.972 53.244,236.160 53.167,236.331 53.167 C 236.503 53.167,236.755 53.054,236.893 52.917 C 237.030 52.779,237.212 52.667,237.296 52.667 C 237.613 52.667,238.685 51.450,238.778 50.985 C 238.831 50.718,238.941 50.500,239.021 50.500 C 239.101 50.500,239.167 49.938,239.167 49.250 C 239.167 48.563,239.101 48.000,239.021 48.000 C 238.941 48.000,238.828 47.767,238.772 47.483 C 238.670 46.974,238.060 46.175,237.768 46.170 C 237.687 46.168,237.535 46.051,237.432 45.909 C 237.329 45.768,237.032 45.630,236.773 45.602 C 236.514 45.574,236.252 45.471,236.190 45.372 C 236.129 45.272,235.724 45.102,235.289 44.993 C 234.855 44.883,234.500 44.728,234.500 44.647 C 234.500 44.566,234.369 44.500,234.208 44.499 C 234.048 44.498,233.699 44.385,233.434 44.246 C 233.168 44.107,232.916 44.028,232.874 44.070 C 232.790 44.155,232.611 44.017,231.726 43.193 C 230.775 42.306,231.238 40.000,232.366 40.000 C 232.501 40.000,232.657 39.955,232.712 39.899 C 232.830 39.781,235.109 39.814,236.083 39.947 C 238.360 40.258,239.231 39.731,238.178 38.678 C 237.638 38.138,232.885 37.776,231.563 38.175 M278.853 38.167 C 278.544 38.240,278.244 38.364,278.187 38.442 C 278.130 38.520,277.858 38.696,277.583 38.834 C 277.308 38.971,276.952 39.233,276.792 39.417 C 276.014 40.307,275.817 40.591,275.727 40.947 C 275.674 41.160,275.578 41.333,275.513 41.333 C 274.542 41.333,274.524 49.257,275.493 50.000 C 275.553 50.046,275.699 50.322,275.816 50.613 C 275.934 50.904,276.136 51.183,276.265 51.233 C 276.394 51.282,276.500 51.438,276.500 51.578 C 276.500 51.718,276.563 51.833,276.641 51.833 C 276.718 51.833,276.999 52.021,277.266 52.250 C 277.532 52.479,277.812 52.666,277.887 52.666 C 277.962 52.667,278.136 52.779,278.274 52.917 C 278.411 53.054,278.702 53.167,278.919 53.167 C 279.136 53.167,279.360 53.242,279.417 53.333 C 279.572 53.584,282.883 53.547,283.158 53.292 C 283.337 53.125,283.359 53.125,283.265 53.292 C 283.131 53.527,283.592 53.589,283.737 53.355 C 283.786 53.275,284.054 53.164,284.333 53.108 C 284.819 53.011,285.004 52.901,285.650 52.321 C 285.811 52.176,286.068 52.010,286.221 51.951 C 286.374 51.892,286.500 51.766,286.500 51.672 C 286.500 51.577,286.631 51.355,286.792 51.179 C 287.378 50.532,287.478 50.361,287.687 49.646 C 287.805 49.245,287.979 48.863,288.075 48.798 C 288.344 48.615,288.312 42.632,288.042 42.542 C 287.927 42.503,287.833 42.341,287.833 42.181 C 287.833 42.020,287.781 41.837,287.718 41.773 C 287.654 41.710,287.579 41.504,287.550 41.316 C 287.522 41.128,287.386 40.862,287.249 40.725 C 287.112 40.588,287.000 40.407,287.000 40.321 C 287.000 40.077,285.737 38.878,285.350 38.755 C 285.157 38.694,285.000 38.583,285.000 38.509 C 285.000 38.073,280.349 37.814,278.853 38.167 M304.853 38.167 C 304.544 38.240,304.244 38.364,304.187 38.442 C 304.130 38.520,303.858 38.695,303.583 38.831 C 302.843 39.197,301.895 40.283,301.725 40.958 C 301.673 41.165,301.570 41.333,301.495 41.333 C 301.421 41.333,301.308 41.577,301.244 41.875 C 301.180 42.173,301.053 42.510,300.961 42.624 C 300.869 42.738,300.830 43.019,300.874 43.249 C 300.918 43.479,300.889 43.667,300.810 43.667 C 300.731 43.667,300.667 43.854,300.667 44.083 C 300.667 44.313,300.742 44.500,300.833 44.500 C 300.929 44.500,301.000 45.000,301.000 45.667 C 301.000 46.333,300.929 46.833,300.833 46.833 C 300.742 46.833,300.667 47.021,300.667 47.250 C 300.667 47.479,300.731 47.667,300.810 47.667 C 300.889 47.667,300.918 47.855,300.874 48.084 C 300.830 48.314,300.869 48.595,300.961 48.709 C 301.053 48.823,301.180 49.160,301.244 49.458 C 301.308 49.756,301.414 50.000,301.480 50.000 C 301.546 50.000,301.695 50.262,301.811 50.583 C 301.927 50.904,302.094 51.167,302.182 51.167 C 302.270 51.167,302.413 51.354,302.500 51.583 C 302.587 51.813,302.773 52.000,302.913 52.000 C 303.052 52.000,303.167 52.062,303.167 52.139 C 303.167 52.215,303.373 52.383,303.625 52.514 C 303.877 52.644,304.182 52.844,304.304 52.958 C 304.425 53.073,304.702 53.167,304.919 53.167 C 305.136 53.167,305.362 53.245,305.421 53.340 C 305.544 53.540,309.488 53.540,309.750 53.340 C 309.842 53.270,310.129 53.162,310.389 53.100 C 310.847 52.990,311.031 52.876,311.650 52.321 C 311.811 52.176,312.068 52.010,312.221 51.951 C 312.374 51.892,312.500 51.766,312.500 51.672 C 312.500 51.577,312.631 51.355,312.792 51.179 C 313.378 50.532,313.478 50.361,313.687 49.646 C 313.805 49.245,313.979 48.863,314.075 48.798 C 314.318 48.633,314.314 42.697,314.071 42.536 C 313.973 42.470,313.794 42.060,313.674 41.625 C 313.555 41.190,313.396 40.833,313.323 40.833 C 313.249 40.833,313.139 40.676,313.078 40.484 C 312.935 40.031,311.802 38.899,311.350 38.755 C 311.157 38.694,311.000 38.583,311.000 38.509 C 311.000 38.073,306.349 37.814,304.853 38.167 M345.917 38.208 C 345.550 38.303,345.212 38.427,345.167 38.483 C 345.121 38.538,344.858 38.696,344.583 38.834 C 344.308 38.971,343.996 39.196,343.889 39.333 C 343.617 39.681,343.438 39.394,343.346 38.458 C 343.339 38.390,342.921 38.333,342.417 38.333 L 341.500 38.333 341.500 48.592 L 341.500 58.850 342.458 58.800 L 343.417 58.750 343.462 55.292 C 343.486 53.390,343.561 51.836,343.628 51.839 C 343.695 51.841,344.050 52.029,344.417 52.254 C 344.783 52.480,345.257 52.665,345.468 52.666 C 345.680 52.666,345.812 52.733,345.762 52.814 C 345.611 53.058,346.471 53.148,348.631 53.115 C 349.922 53.095,350.723 53.015,350.798 52.897 C 350.863 52.795,351.087 52.659,351.294 52.594 C 351.506 52.528,351.623 52.397,351.560 52.296 C 351.495 52.190,351.526 52.163,351.635 52.230 C 352.033 52.476,354.000 49.989,354.000 49.239 C 354.000 49.123,354.073 49.003,354.163 48.972 C 354.690 48.793,354.715 42.186,354.190 41.843 C 354.112 41.792,353.957 41.469,353.845 41.125 C 353.733 40.781,353.572 40.500,353.487 40.500 C 353.403 40.500,353.333 40.404,353.333 40.287 C 353.333 40.170,353.202 39.952,353.042 39.803 C 352.881 39.654,352.573 39.338,352.358 39.100 C 352.142 38.862,351.860 38.667,351.733 38.667 C 351.605 38.667,351.500 38.601,351.500 38.520 C 351.500 38.054,347.392 37.824,345.917 38.208 M369.087 38.205 C 368.630 38.287,368.218 38.410,368.170 38.478 C 368.122 38.546,367.821 38.706,367.500 38.833 C 367.179 38.960,366.879 39.117,366.833 39.182 C 366.542 39.595,366.086 39.394,366.136 38.875 L 366.188 38.333 365.177 38.333 L 364.167 38.333 364.167 45.667 L 364.167 53.000 365.167 53.000 L 366.167 53.000 366.167 47.268 L 366.167 41.536 366.579 41.433 C 366.805 41.376,367.124 41.190,367.287 41.020 C 367.450 40.850,367.859 40.661,368.196 40.600 C 368.533 40.539,368.838 40.403,368.873 40.297 C 369.164 39.425,373.833 40.176,373.833 41.094 C 373.833 41.210,373.927 41.337,374.042 41.375 C 374.202 41.428,374.262 42.786,374.303 47.222 L 374.357 53.000 375.354 53.000 L 376.352 53.000 376.301 46.617 C 376.245 39.615,376.299 39.992,375.193 38.861 C 374.360 38.008,371.748 37.728,369.087 38.205 M383.504 38.170 C 383.186 38.245,382.899 38.387,382.866 38.487 C 382.833 38.586,382.713 38.667,382.601 38.667 C 382.273 38.667,381.648 39.334,381.773 39.552 C 381.836 39.661,381.825 39.694,381.749 39.625 C 381.582 39.474,381.000 39.967,381.000 40.258 C 381.000 40.371,380.895 40.505,380.766 40.554 C 380.637 40.604,380.477 40.893,380.411 41.197 C 380.345 41.501,380.230 41.789,380.155 41.837 C 379.736 42.106,379.520 46.154,379.835 47.844 C 380.124 49.393,381.813 52.000,382.528 52.000 C 382.617 52.000,382.798 52.107,382.928 52.238 C 383.848 53.158,390.000 52.495,390.000 51.476 C 390.000 51.184,390.464 51.345,390.548 51.667 C 390.596 51.850,390.574 51.962,390.499 51.916 C 390.423 51.869,390.329 52.301,390.289 52.874 C 390.152 54.829,389.106 56.436,387.719 56.822 C 386.436 57.178,382.127 56.910,381.815 56.455 C 381.464 55.943,380.749 56.427,380.699 57.211 C 380.636 58.198,380.824 58.403,382.057 58.690 C 382.576 58.810,383.000 58.967,383.000 59.038 C 383.000 59.109,384.125 59.167,385.500 59.167 C 386.895 59.167,388.000 59.099,388.000 59.015 C 388.000 58.931,388.291 58.813,388.647 58.753 C 389.002 58.693,389.458 58.518,389.658 58.364 C 390.564 57.668,391.445 56.701,391.662 56.167 C 391.792 55.846,391.966 55.537,392.050 55.479 C 392.133 55.422,392.242 54.878,392.290 54.271 C 392.339 53.664,392.444 53.167,392.523 53.167 C 392.802 53.167,392.700 38.843,392.419 38.562 C 391.937 38.080,390.605 38.323,390.479 38.917 C 390.421 39.192,390.364 39.337,390.353 39.239 C 390.342 39.142,390.071 38.959,389.750 38.833 C 389.429 38.707,389.167 38.552,389.167 38.489 C 389.167 38.073,384.932 37.834,383.504 38.170 M165.034 44.778 C 165.072 49.750,165.131 51.238,165.292 51.292 C 165.406 51.330,165.500 51.470,165.500 51.602 C 165.500 51.735,165.612 51.887,165.749 51.939 C 165.886 51.992,165.959 52.098,165.911 52.176 C 165.863 52.253,165.995 52.407,166.204 52.517 C 166.412 52.627,166.621 52.767,166.667 52.830 C 167.072 53.380,171.285 53.816,171.581 53.338 C 171.629 53.260,171.968 53.145,172.334 53.083 C 172.700 53.021,173.000 52.914,173.000 52.845 C 173.000 52.776,173.296 52.622,173.658 52.503 C 174.020 52.383,174.355 52.184,174.403 52.060 C 174.532 51.721,174.833 51.787,174.833 52.153 C 174.833 52.870,175.003 53.000,175.934 53.000 L 176.833 53.000 176.833 45.667 L 176.833 38.333 175.833 38.333 L 174.833 38.333 174.833 44.052 L 174.833 49.771 174.250 50.000 C 173.929 50.126,173.667 50.278,173.667 50.338 C 173.667 50.398,173.367 50.546,173.000 50.667 C 172.633 50.788,172.333 50.950,172.333 51.027 C 172.333 51.104,172.104 51.167,171.823 51.167 C 171.543 51.167,171.349 51.223,171.391 51.292 C 171.434 51.360,170.772 51.377,169.921 51.329 C 168.170 51.229,167.599 50.899,167.401 49.875 C 167.343 49.577,167.230 49.333,167.148 49.333 C 167.065 49.333,167.000 46.930,167.000 43.833 L 167.000 38.333 165.993 38.333 L 164.985 38.333 165.034 44.778 M191.500 45.667 L 191.500 53.000 192.500 53.000 L 193.500 53.000 193.500 45.667 L 193.500 38.333 192.500 38.333 L 191.500 38.333 191.500 45.667 M265.833 45.667 L 265.833 53.000 266.833 53.000 L 267.833 53.000 267.836 47.792 C 267.838 42.661,267.893 41.747,268.187 41.929 C 268.269 41.980,268.378 41.911,268.430 41.776 C 268.482 41.641,268.744 41.440,269.012 41.328 C 269.280 41.217,269.500 41.064,269.500 40.988 C 269.500 40.737,270.727 40.502,272.042 40.501 C 272.752 40.500,273.339 40.444,273.346 40.375 C 273.353 40.306,273.377 39.819,273.399 39.292 L 273.441 38.333 271.887 38.333 C 271.032 38.333,270.333 38.400,270.333 38.481 C 270.333 38.563,270.073 38.678,269.755 38.738 C 269.435 38.798,268.904 39.104,268.568 39.421 C 267.908 40.043,267.608 40.042,267.764 39.418 C 267.972 38.592,267.728 38.333,266.739 38.333 L 265.833 38.333 265.833 45.667 M325.947 38.563 C 325.837 38.850,326.065 39.889,326.387 40.569 C 327.104 42.083,327.333 42.646,327.333 42.893 C 327.333 43.044,327.401 43.167,327.483 43.167 C 327.566 43.167,327.723 43.542,327.833 44.000 C 327.943 44.458,328.084 44.833,328.147 44.833 C 328.209 44.833,328.364 45.190,328.490 45.625 C 328.616 46.060,328.820 46.565,328.943 46.745 C 329.066 46.926,329.167 47.207,329.167 47.370 C 329.167 47.533,329.234 47.667,329.317 47.667 C 329.399 47.667,329.557 48.042,329.667 48.500 C 329.777 48.958,329.926 49.333,329.998 49.333 C 330.070 49.333,330.176 49.577,330.232 49.875 C 330.289 50.173,330.446 50.629,330.582 50.889 C 330.717 51.149,330.907 51.655,331.004 52.014 C 331.100 52.373,331.252 52.667,331.340 52.667 C 331.428 52.667,331.500 52.854,331.500 53.083 C 331.500 53.313,331.426 53.500,331.336 53.500 C 331.245 53.500,331.086 53.837,330.983 54.250 C 330.879 54.663,330.737 55.000,330.668 55.000 C 330.598 55.000,330.494 55.237,330.436 55.527 C 330.207 56.672,329.144 57.389,327.737 57.348 L 326.500 57.312 326.500 57.975 C 326.500 59.151,326.523 59.167,328.274 59.167 C 330.179 59.167,330.426 59.044,331.806 57.406 C 332.106 57.050,332.346 56.489,332.260 56.349 C 332.210 56.269,332.284 56.110,332.422 55.996 C 332.560 55.881,332.756 55.460,332.857 55.060 C 332.957 54.660,333.097 54.333,333.168 54.333 C 333.238 54.333,333.345 54.071,333.406 53.750 C 333.466 53.429,333.578 53.167,333.656 53.167 C 333.777 53.167,333.879 52.822,334.101 51.670 C 334.127 51.534,334.228 51.396,334.325 51.364 C 334.421 51.332,334.549 51.005,334.607 50.638 C 334.666 50.272,334.810 49.935,334.927 49.890 C 335.044 49.845,335.228 49.439,335.336 48.987 C 335.445 48.536,335.601 48.167,335.683 48.167 C 335.766 48.167,335.833 48.050,335.833 47.908 C 335.833 47.765,335.985 47.315,336.171 46.908 C 336.356 46.500,336.553 45.942,336.608 45.667 C 336.663 45.392,336.765 45.167,336.834 45.167 C 336.904 45.167,337.045 44.829,337.149 44.417 C 337.253 44.004,337.412 43.667,337.502 43.667 C 337.593 43.667,337.667 43.550,337.667 43.408 C 337.667 43.265,337.819 42.815,338.004 42.408 C 338.190 42.000,338.387 41.442,338.442 41.167 C 338.497 40.892,338.598 40.667,338.668 40.667 C 338.822 40.667,339.167 39.347,339.167 38.760 C 339.167 38.350,339.128 38.333,338.174 38.333 L 337.182 38.333 337.072 38.917 C 337.012 39.237,336.908 39.500,336.841 39.500 C 336.775 39.500,336.621 39.912,336.500 40.417 C 336.379 40.921,336.220 41.333,336.148 41.333 C 336.075 41.333,335.966 41.596,335.906 41.917 C 335.845 42.237,335.730 42.500,335.648 42.500 C 335.567 42.500,335.500 42.579,335.500 42.677 C 335.500 42.774,335.594 42.806,335.708 42.747 C 335.823 42.689,335.792 42.744,335.640 42.870 C 335.489 42.995,335.325 43.349,335.276 43.657 C 335.227 43.965,335.097 44.273,334.986 44.342 C 334.875 44.410,334.832 44.590,334.890 44.742 C 334.952 44.903,334.928 44.975,334.831 44.915 C 334.741 44.859,334.667 44.951,334.667 45.120 C 334.667 45.288,334.566 45.574,334.443 45.755 C 334.320 45.935,334.116 46.440,333.990 46.875 C 333.864 47.310,333.708 47.667,333.644 47.667 C 333.579 47.667,333.474 47.910,333.409 48.208 C 333.344 48.506,333.240 48.788,333.177 48.833 C 333.114 48.879,332.991 49.173,332.904 49.487 C 332.669 50.332,332.424 50.278,332.165 49.326 C 332.038 48.860,331.874 48.442,331.800 48.396 C 331.727 48.351,331.667 48.173,331.667 48.002 C 331.667 47.831,331.565 47.589,331.441 47.465 C 331.318 47.341,331.116 46.849,330.993 46.370 C 330.871 45.892,330.721 45.500,330.662 45.500 C 330.602 45.500,330.454 45.087,330.333 44.583 C 330.212 44.079,330.059 43.667,329.993 43.667 C 329.868 43.667,329.615 43.017,329.650 42.786 C 329.661 42.715,329.519 42.325,329.335 41.921 C 329.151 41.516,329.000 41.068,329.000 40.926 C 329.000 40.783,328.930 40.667,328.845 40.667 C 328.760 40.667,328.598 40.254,328.485 39.750 C 328.373 39.246,328.217 38.833,328.140 38.833 C 328.063 38.833,328.000 38.721,328.000 38.583 C 328.000 38.240,326.079 38.221,325.947 38.563 M358.000 45.667 L 358.000 53.000 359.000 53.000 L 360.000 53.000 360.000 45.667 L 360.000 38.333 359.000 38.333 L 358.000 38.333 358.000 45.667 M359.791 49.125 C 359.765 51.027,359.743 49.471,359.743 45.667 C 359.743 41.862,359.765 40.306,359.791 42.208 C 359.818 44.110,359.818 47.223,359.791 49.125 M149.955 40.282 C 149.992 40.392,150.275 40.565,150.584 40.667 C 150.949 40.787,151.224 41.026,151.364 41.343 C 151.484 41.613,151.635 41.833,151.701 41.833 C 151.766 41.833,151.913 42.152,152.027 42.542 C 152.141 42.931,152.305 43.299,152.393 43.359 C 152.611 43.509,152.599 47.835,152.380 47.974 C 152.213 48.081,151.905 49.126,151.968 49.375 C 151.986 49.444,151.906 49.500,151.791 49.500 C 151.676 49.500,151.483 49.721,151.364 49.992 C 151.244 50.263,150.982 50.534,150.781 50.595 C 150.581 50.656,150.278 50.828,150.110 50.976 C 149.816 51.234,146.401 51.554,146.291 51.333 C 146.269 51.288,145.920 51.070,145.517 50.851 C 144.592 50.346,144.294 50.047,144.002 49.326 C 143.874 49.009,143.707 48.707,143.630 48.654 C 143.348 48.460,143.160 45.697,143.327 44.221 C 143.418 43.425,143.554 42.732,143.630 42.679 C 143.707 42.626,143.874 42.324,144.002 42.007 C 144.584 40.571,145.853 39.968,148.153 40.034 C 149.311 40.067,149.911 40.150,149.955 40.282 M205.733 40.375 C 205.893 40.535,206.102 40.667,206.197 40.667 C 206.433 40.667,207.160 41.372,207.164 41.605 C 207.165 41.708,207.274 41.882,207.406 41.991 C 207.538 42.100,207.697 42.428,207.760 42.720 C 207.823 43.011,207.952 43.299,208.047 43.359 C 208.150 43.425,208.218 44.341,208.218 45.667 C 208.218 46.992,208.150 47.908,208.047 47.974 C 207.952 48.034,207.823 48.322,207.760 48.613 C 207.697 48.905,207.538 49.233,207.406 49.342 C 207.274 49.451,207.165 49.625,207.164 49.729 C 207.161 49.936,206.558 50.540,206.167 50.727 C 206.029 50.793,205.729 50.955,205.500 51.087 C 203.838 52.049,200.343 50.993,199.669 49.326 C 199.541 49.009,199.356 48.700,199.258 48.639 C 199.160 48.578,199.057 48.053,199.029 47.472 C 199.001 46.892,198.908 46.392,198.822 46.361 C 198.626 46.291,198.615 45.000,198.811 45.000 C 198.890 45.000,198.994 44.503,199.043 43.896 C 199.092 43.288,199.200 42.745,199.284 42.687 C 199.367 42.630,199.541 42.324,199.669 42.007 C 199.970 41.264,200.401 40.840,201.332 40.373 C 202.311 39.880,205.240 39.882,205.733 40.375 M283.733 40.375 C 283.893 40.535,284.112 40.668,284.220 40.670 C 284.492 40.674,285.094 41.338,285.237 41.792 C 285.303 41.998,285.422 42.167,285.504 42.167 C 285.585 42.167,285.701 42.429,285.761 42.750 C 285.821 43.071,285.926 43.333,285.994 43.333 C 286.187 43.333,286.321 45.490,286.215 46.892 C 286.162 47.588,286.063 48.122,285.995 48.080 C 285.926 48.038,285.821 48.265,285.761 48.585 C 285.701 48.905,285.585 49.167,285.504 49.167 C 285.422 49.167,285.303 49.335,285.239 49.542 C 285.114 49.941,284.579 50.533,284.167 50.728 C 284.029 50.793,283.729 50.955,283.500 51.087 C 281.838 52.049,278.343 50.993,277.669 49.326 C 277.541 49.009,277.356 48.700,277.258 48.639 C 277.160 48.578,277.057 48.053,277.029 47.472 C 277.001 46.892,276.908 46.392,276.822 46.361 C 276.604 46.283,276.627 45.000,276.846 45.000 C 276.944 45.000,277.007 44.794,276.984 44.542 C 276.931 43.957,277.159 42.667,277.315 42.667 C 277.380 42.667,277.531 42.397,277.650 42.066 C 277.924 41.310,278.379 40.852,279.332 40.373 C 280.311 39.880,283.240 39.882,283.733 40.375 M309.733 40.375 C 309.893 40.535,310.102 40.667,310.197 40.667 C 310.444 40.667,311.160 41.377,311.164 41.625 C 311.165 41.740,311.246 41.833,311.343 41.833 C 311.440 41.833,311.473 41.908,311.417 42.000 C 311.360 42.092,311.412 42.167,311.532 42.167 C 311.658 42.167,311.766 42.391,311.787 42.696 C 311.808 42.987,311.890 43.268,311.970 43.321 C 312.317 43.549,312.342 48.295,311.995 48.080 C 311.926 48.038,311.821 48.265,311.761 48.585 C 311.701 48.905,311.576 49.167,311.483 49.167 C 311.390 49.167,311.360 49.242,311.417 49.333 C 311.473 49.425,311.440 49.500,311.343 49.500 C 311.246 49.500,311.167 49.596,311.167 49.713 C 311.167 49.830,310.998 50.073,310.792 50.253 C 308.643 52.124,304.588 51.597,303.669 49.326 C 303.541 49.009,303.356 48.700,303.258 48.639 C 303.160 48.578,303.057 48.053,303.029 47.472 C 303.001 46.892,302.908 46.392,302.822 46.361 C 302.626 46.291,302.615 45.000,302.811 45.000 C 302.890 45.000,302.994 44.503,303.043 43.896 C 303.092 43.288,303.200 42.745,303.284 42.687 C 303.367 42.630,303.541 42.324,303.669 42.007 C 303.970 41.264,304.401 40.840,305.332 40.373 C 306.311 39.880,309.240 39.882,309.733 40.375 M350.228 40.371 C 350.379 40.522,350.640 40.688,350.808 40.742 C 350.976 40.795,351.219 41.044,351.348 41.294 C 351.477 41.545,351.622 41.787,351.670 41.833 C 351.869 42.024,352.167 42.878,352.167 43.258 C 352.167 43.483,352.242 43.667,352.333 43.667 C 352.434 43.667,352.500 44.389,352.500 45.500 C 352.500 46.508,352.440 47.333,352.367 47.333 C 352.293 47.333,352.142 47.776,352.030 48.317 C 351.914 48.881,351.722 49.340,351.580 49.395 C 351.444 49.447,351.333 49.588,351.333 49.708 C 351.333 49.993,350.883 50.370,350.210 50.649 C 349.914 50.771,349.706 50.929,349.749 50.999 C 349.792 51.069,349.079 51.139,348.164 51.154 C 347.181 51.171,346.500 51.117,346.500 51.021 C 346.500 50.933,346.257 50.806,345.960 50.741 C 345.663 50.676,345.187 50.445,344.903 50.228 C 344.618 50.011,344.336 49.833,344.276 49.833 C 343.600 49.833,343.500 49.257,343.500 45.364 L 343.500 41.562 344.083 41.333 C 344.404 41.207,344.667 41.049,344.667 40.980 C 344.667 40.912,344.818 40.808,345.002 40.749 C 345.187 40.691,345.302 40.584,345.257 40.512 C 345.213 40.440,345.362 40.417,345.588 40.460 C 345.815 40.503,346.000 40.460,346.000 40.364 C 346.000 39.921,349.785 39.928,350.228 40.371 M388.412 40.389 C 388.565 40.542,388.765 40.667,388.856 40.667 C 389.037 40.667,390.175 41.479,390.372 41.749 C 390.440 41.841,390.496 43.534,390.497 45.511 L 390.500 49.105 389.958 49.394 C 389.660 49.553,389.192 49.804,388.917 49.951 C 388.642 50.098,388.363 50.300,388.298 50.401 C 388.109 50.690,384.360 50.645,384.178 50.351 C 384.098 50.223,383.914 50.164,383.769 50.220 C 383.623 50.276,383.522 50.258,383.544 50.181 C 383.565 50.104,383.344 49.810,383.050 49.527 C 382.757 49.245,382.423 48.692,382.309 48.299 C 382.194 47.905,382.030 47.535,381.945 47.477 C 381.860 47.418,381.790 46.454,381.790 45.333 C 381.790 44.213,381.860 43.248,381.945 43.190 C 382.030 43.131,382.194 42.760,382.309 42.366 C 382.520 41.646,383.528 40.500,383.951 40.500 C 384.070 40.500,384.167 40.430,384.167 40.346 C 384.167 39.898,387.961 39.937,388.412 40.389 M196.955 46.292 C 196.919 46.635,196.889 46.354,196.889 45.667 C 196.889 44.979,196.919 44.698,196.955 45.042 C 196.991 45.385,196.991 45.948,196.955 46.292 M274.955 46.292 C 274.919 46.635,274.889 46.354,274.889 45.667 C 274.889 44.979,274.919 44.698,274.955 45.042 C 274.991 45.385,274.991 45.948,274.955 46.292 M131.628 51.619 C 131.378 51.657,130.928 51.658,130.628 51.621 C 130.328 51.584,130.533 51.553,131.083 51.552 C 131.633 51.551,131.878 51.581,131.628 51.619 M170.294 51.615 C 170.134 51.656,169.834 51.658,169.627 51.618 C 169.420 51.578,169.550 51.544,169.917 51.542 C 170.283 51.540,170.453 51.573,170.294 51.615 M186.294 51.615 C 186.134 51.656,185.834 51.658,185.627 51.618 C 185.420 51.578,185.550 51.544,185.917 51.542 C 186.283 51.540,186.453 51.573,186.294 51.615 M296.794 51.615 C 296.634 51.656,296.334 51.658,296.127 51.618 C 295.920 51.578,296.050 51.544,296.417 51.542 C 296.783 51.540,296.953 51.573,296.794 51.615 M322.794 51.615 C 322.634 51.656,322.334 51.658,322.127 51.618 C 321.920 51.578,322.050 51.544,322.417 51.542 C 322.783 51.540,322.953 51.573,322.794 51.615 M239.833 52.750 C 239.833 52.887,239.908 53.000,240.000 53.000 C 240.092 53.000,240.167 52.887,240.167 52.750 C 240.167 52.612,240.092 52.500,240.000 52.500 C 239.908 52.500,239.833 52.612,239.833 52.750 " stroke="none" fill="#241c24" fill-rule="evenodd"></path><path id="path3" d="" stroke="none" fill="#c89828" fill-rule="evenodd"></path><path id="path4" d="" stroke="none" fill="#5c1c28" fill-rule="evenodd"></path></g></svg>